<?xml version="1.0" encoding="UTF-8"?>
<!--Generator: Apple Native CoreSVG 175-->
<!DOCTYPE svg
PUBLIC "-//W3C//DTD SVG 1.1//EN"
       "http://www.w3.org/Graphics/SVG/1.1/DTD/svg11.dtd">
<svg version="1.1" xmlns="http://www.w3.org/2000/svg" xmlns:xlink="http://www.w3.org/1999/xlink" width="3300" height="2200">
 <!--glyph: "uni1008E9.medium", point size: 100.0, font version: "17.1d1e1", template writer version: "65.1"-->
 <g id="Notes">
  <rect height="2200" id="artboard" style="fill:white;opacity:1" width="3300" x="0" y="0"/>
  <line style="fill:none;stroke:black;opacity:1;stroke-width:0.5;" x1="263" x2="3036" y1="292" y2="292"/>
  <text style="stroke:none;fill:black;font-family:sans-serif;font-size:13;font-weight:bold;" transform="matrix(1 0 0 1 263 322)">Weight/Scale Variations</text>
  <text style="stroke:none;fill:black;font-family:sans-serif;font-size:13;text-anchor:middle;" transform="matrix(1 0 0 1 559.711 322)">Ultralight</text>
  <text style="stroke:none;fill:black;font-family:sans-serif;font-size:13;text-anchor:middle;" transform="matrix(1 0 0 1 856.422 322)">Thin</text>
  <text style="stroke:none;fill:black;font-family:sans-serif;font-size:13;text-anchor:middle;" transform="matrix(1 0 0 1 1153.13 322)">Light</text>
  <text style="stroke:none;fill:black;font-family:sans-serif;font-size:13;text-anchor:middle;" transform="matrix(1 0 0 1 1449.84 322)">Regular</text>
  <text style="stroke:none;fill:black;font-family:sans-serif;font-size:13;text-anchor:middle;" transform="matrix(1 0 0 1 1746.56 322)">Medium</text>
  <text style="stroke:none;fill:black;font-family:sans-serif;font-size:13;text-anchor:middle;" transform="matrix(1 0 0 1 2043.27 322)">Semibold</text>
  <text style="stroke:none;fill:black;font-family:sans-serif;font-size:13;text-anchor:middle;" transform="matrix(1 0 0 1 2339.98 322)">Bold</text>
  <text style="stroke:none;fill:black;font-family:sans-serif;font-size:13;text-anchor:middle;" transform="matrix(1 0 0 1 2636.69 322)">Heavy</text>
  <text style="stroke:none;fill:black;font-family:sans-serif;font-size:13;text-anchor:middle;" transform="matrix(1 0 0 1 2933.4 322)">Black</text>
  <line style="fill:none;stroke:black;opacity:1;stroke-width:0.5;" x1="263" x2="3036" y1="1903" y2="1903"/>
  <g transform="matrix(1 0 0 1 263 1933)">
   <path d="M9.24805 0.830078Q10.8691 0.830078 12.2949 0.214844Q13.7207-0.400391 14.8096-1.49414Q15.8984-2.58789 16.5186-4.01367Q17.1387-5.43945 17.1387-7.05078Q17.1387-8.66211 16.5186-10.0879Q15.8984-11.5137 14.8047-12.6074Q13.7109-13.7012 12.2852-14.3164Q10.8594-14.9316 9.23828-14.9316Q7.62695-14.9316 6.20117-14.3164Q4.77539-13.7012 3.69141-12.6074Q2.60742-11.5137 1.9873-10.0879Q1.36719-8.66211 1.36719-7.05078Q1.36719-5.43945 1.9873-4.01367Q2.60742-2.58789 3.69629-1.49414Q4.78516-0.400391 6.21094 0.214844Q7.63672 0.830078 9.24805 0.830078ZM9.24805-0.654297Q7.91992-0.654297 6.7627-1.14746Q5.60547-1.64062 4.73145-2.51953Q3.85742-3.39844 3.36426-4.56055Q2.87109-5.72266 2.87109-7.05078Q2.87109-8.37891 3.35938-9.54102Q3.84766-10.7031 4.72168-11.582Q5.5957-12.4609 6.75293-12.9541Q7.91016-13.4473 9.23828-13.4473Q10.5762-13.4473 11.7334-12.9541Q12.8906-12.4609 13.7695-11.582Q14.6484-10.7031 15.1465-9.54102Q15.6445-8.37891 15.6445-7.05078Q15.6445-5.72266 15.1514-4.56055Q14.6582-3.39844 13.7842-2.51953Q12.9102-1.64062 11.748-1.14746Q10.5859-0.654297 9.24805-0.654297ZM5.6543-7.05078Q5.6543-6.72852 5.85938-6.52832Q6.06445-6.32812 6.40625-6.32812L8.51562-6.32812L8.51562-4.20898Q8.51562-3.88672 8.71094-3.67676Q8.90625-3.4668 9.23828-3.4668Q9.56055-3.4668 9.77051-3.67676Q9.98047-3.88672 9.98047-4.20898L9.98047-6.32812L12.0898-6.32812Q12.4219-6.32812 12.627-6.52832Q12.832-6.72852 12.832-7.05078Q12.832-7.38281 12.627-7.58789Q12.4219-7.79297 12.0898-7.79297L9.98047-7.79297L9.98047-9.90234Q9.98047-10.2344 9.77051-10.4443Q9.56055-10.6543 9.23828-10.6543Q8.90625-10.6543 8.71094-10.4443Q8.51562-10.2344 8.51562-9.90234L8.51562-7.79297L6.40625-7.79297Q6.06445-7.79297 5.85938-7.58789Q5.6543-7.38281 5.6543-7.05078Z"/>
  </g>
  <g transform="matrix(1 0 0 1 281.867 1933)">
   <path d="M11.709 2.91016Q13.75 2.91016 15.5518 2.12891Q17.3535 1.34766 18.7305-0.0292969Q20.1074-1.40625 20.8887-3.20801Q21.6699-5.00977 21.6699-7.05078Q21.6699-9.0918 20.8887-10.8936Q20.1074-12.6953 18.7305-14.0723Q17.3535-15.4492 15.5469-16.2305Q13.7402-17.0117 11.6992-17.0117Q9.6582-17.0117 7.85645-16.2305Q6.05469-15.4492 4.68262-14.0723Q3.31055-12.6953 2.5293-10.8936Q1.74805-9.0918 1.74805-7.05078Q1.74805-5.00977 2.5293-3.20801Q3.31055-1.40625 4.6875-0.0292969Q6.06445 1.34766 7.86621 2.12891Q9.66797 2.91016 11.709 2.91016ZM11.709 1.25Q9.98047 1.25 8.47656 0.605469Q6.97266-0.0390625 5.83496-1.17676Q4.69727-2.31445 4.05762-3.81836Q3.41797-5.32227 3.41797-7.05078Q3.41797-8.7793 4.05762-10.2832Q4.69727-11.7871 5.83008-12.9297Q6.96289-14.0723 8.4668-14.7119Q9.9707-15.3516 11.6992-15.3516Q13.4277-15.3516 14.9316-14.7119Q16.4355-14.0723 17.5781-12.9297Q18.7207-11.7871 19.3652-10.2832Q20.0098-8.7793 20.0098-7.05078Q20.0098-5.32227 19.3701-3.81836Q18.7305-2.31445 17.5928-1.17676Q16.4551-0.0390625 14.9463 0.605469Q13.4375 1.25 11.709 1.25ZM7.17773-7.05078Q7.17773-6.69922 7.41211-6.47461Q7.64648-6.25 8.01758-6.25L10.8887-6.25L10.8887-3.36914Q10.8887-2.99805 11.1133-2.76855Q11.3379-2.53906 11.6895-2.53906Q12.0605-2.53906 12.29-2.76855Q12.5195-2.99805 12.5195-3.36914L12.5195-6.25L15.4004-6.25Q15.7715-6.25 16.001-6.47461Q16.2305-6.69922 16.2305-7.05078Q16.2305-7.42188 16.001-7.65137Q15.7715-7.88086 15.4004-7.88086L12.5195-7.88086L12.5195-10.752Q12.5195-11.1328 12.29-11.3623Q12.0605-11.5918 11.6895-11.5918Q11.3379-11.5918 11.1133-11.3574Q10.8887-11.123 10.8887-10.752L10.8887-7.88086L8.01758-7.88086Q7.63672-7.88086 7.40723-7.65137Q7.17773-7.42188 7.17773-7.05078Z"/>
  </g>
  <g transform="matrix(1 0 0 1 305.646 1933)">
   <path d="M14.9707 5.66406Q17.0605 5.66406 18.96 5.01465Q20.8594 4.36523 22.4512 3.19336Q24.043 2.02148 25.2197 0.429688Q26.3965-1.16211 27.0459-3.06641Q27.6953-4.9707 27.6953-7.05078Q27.6953-9.14062 27.0459-11.04Q26.3965-12.9395 25.2197-14.5312Q24.043-16.123 22.4512-17.2998Q20.8594-18.4766 18.9551-19.126Q17.0508-19.7754 14.9609-19.7754Q12.8711-19.7754 10.9717-19.126Q9.07227-18.4766 7.48535-17.2998Q5.89844-16.123 4.72168-14.5312Q3.54492-12.9395 2.90039-11.04Q2.25586-9.14062 2.25586-7.05078Q2.25586-4.9707 2.90527-3.06641Q3.55469-1.16211 4.72656 0.429688Q5.89844 2.02148 7.49023 3.19336Q9.08203 4.36523 10.9814 5.01465Q12.8809 5.66406 14.9707 5.66406ZM14.9707 3.84766Q13.1641 3.84766 11.5283 3.2959Q9.89258 2.74414 8.53516 1.74805Q7.17773 0.751953 6.17676-0.610352Q5.17578-1.97266 4.62891-3.6084Q4.08203-5.24414 4.08203-7.05078Q4.08203-8.86719 4.62891-10.5029Q5.17578-12.1387 6.17188-13.501Q7.16797-14.8633 8.52539-15.8594Q9.88281-16.8555 11.5186-17.4023Q13.1543-17.9492 14.9609-17.9492Q16.7773-17.9492 18.4131-17.4023Q20.0488-16.8555 21.4111-15.8594Q22.7734-14.8633 23.7695-13.501Q24.7656-12.1387 25.3174-10.5029Q25.8691-8.86719 25.8691-7.05078Q25.8789-5.24414 25.332-3.6084Q24.7852-1.97266 23.7842-0.610352Q22.7832 0.751953 21.4209 1.74805Q20.0586 2.74414 18.4229 3.2959Q16.7871 3.84766 14.9707 3.84766ZM9.19922-7.05078Q9.19922-6.66992 9.45801-6.4209Q9.7168-6.17188 10.1172-6.17188L14.0625-6.17188L14.0625-2.2168Q14.0625-1.81641 14.3115-1.55762Q14.5605-1.29883 14.9512-1.29883Q15.3516-1.29883 15.6104-1.55273Q15.8691-1.80664 15.8691-2.2168L15.8691-6.17188L19.8242-6.17188Q20.2246-6.17188 20.4785-6.4209Q20.7324-6.66992 20.7324-7.05078Q20.7324-7.46094 20.4785-7.71484Q20.2246-7.96875 19.8242-7.96875L15.8691-7.96875L15.8691-11.9141Q15.8691-12.3242 15.6104-12.583Q15.3516-12.8418 14.9512-12.8418Q14.5605-12.8418 14.3115-12.583Q14.0625-12.3242 14.0625-11.9141L14.0625-7.96875L10.1172-7.96875Q9.70703-7.96875 9.45312-7.71484Q9.19922-7.46094 9.19922-7.05078Z"/>
  </g>
  <text style="stroke:none;fill:black;font-family:sans-serif;font-size:13;font-weight:bold;" transform="matrix(1 0 0 1 263 1953)">Design Variations</text>
  <text style="stroke:none;fill:black;font-family:sans-serif;font-size:13;" transform="matrix(1 0 0 1 263 1971)">Symbols are supported in up to nine weights and three scales.</text>
  <text style="stroke:none;fill:black;font-family:sans-serif;font-size:13;" transform="matrix(1 0 0 1 263 1989)">For optimal layout with text and other symbols, vertically align</text>
  <text style="stroke:none;fill:black;font-family:sans-serif;font-size:13;" transform="matrix(1 0 0 1 263 2007)">symbols with the adjacent text.</text>
  <line style="fill:none;stroke:#00AEEF;stroke-width:0.5;opacity:1.0;" x1="776" x2="776" y1="1919" y2="1933"/>
  <g transform="matrix(1 0 0 1 776 1933)">
   <path d="M3.31055 0.15625Q3.70117 0.15625 3.91602-0.00976562Q4.13086-0.175781 4.26758-0.585938L5.52734-4.0332L11.2891-4.0332L12.5488-0.585938Q12.6855-0.175781 12.9004-0.00976562Q13.1152 0.15625 13.4961 0.15625Q13.8867 0.15625 14.1162-0.0585938Q14.3457-0.273438 14.3457-0.644531Q14.3457-0.869141 14.2383-1.17188L9.6582-13.3691Q9.48242-13.8184 9.17969-14.043Q8.87695-14.2676 8.4082-14.2676Q7.5-14.2676 7.17773-13.3789L2.59766-1.16211Q2.49023-0.859375 2.49023-0.634766Q2.49023-0.263672 2.70996-0.0537109Q2.92969 0.15625 3.31055 0.15625ZM6.00586-5.51758L8.37891-12.0898L8.42773-12.0898L10.8008-5.51758Z"/>
  </g>
  <line style="fill:none;stroke:#00AEEF;stroke-width:0.5;opacity:1.0;" x1="793.197" x2="793.197" y1="1919" y2="1933"/>
  <text style="stroke:none;fill:black;font-family:sans-serif;font-size:13;font-weight:bold;" transform="matrix(1 0 0 1 776 1953)">Margins</text>
  <text style="stroke:none;fill:black;font-family:sans-serif;font-size:13;" transform="matrix(1 0 0 1 776 1971)">Leading and trailing margins on the left and right side of each symbol</text>
  <text style="stroke:none;fill:black;font-family:sans-serif;font-size:13;" transform="matrix(1 0 0 1 776 1989)">can be adjusted by modifying the x-location of the margin guidelines.</text>
  <text style="stroke:none;fill:black;font-family:sans-serif;font-size:13;" transform="matrix(1 0 0 1 776 2007)">Modifications are automatically applied proportionally to all</text>
  <text style="stroke:none;fill:black;font-family:sans-serif;font-size:13;" transform="matrix(1 0 0 1 776 2025)">scales and weights.</text>
  <g transform="matrix(1 0 0 1 1289 1933)">
   <path d="M2.8418 1.86523L4.54102 3.57422Q5.18555 4.22852 5.90332 4.17969Q6.62109 4.13086 7.31445 3.35938L18.0078-8.42773L17.041-9.4043L6.42578 2.27539Q6.16211 2.57812 5.89355 2.61719Q5.625 2.65625 5.27344 2.30469L4.10156 1.14258Q3.75 0.791016 3.79395 0.522461Q3.83789 0.253906 4.14062-0.0195312L15.6152-10.8203L14.6387-11.7871L3.04688-0.898438Q2.30469-0.214844 2.25098 0.498047Q2.19727 1.21094 2.8418 1.86523ZM9.25781-16.3281Q8.94531-16.0254 8.90625-15.6348Q8.86719-15.2441 9.04297-14.9512Q9.21875-14.6777 9.55566-14.541Q9.89258-14.4043 10.3809-14.5215Q11.4746-14.7754 12.5977-14.7314Q13.7207-14.6875 14.7949-13.9844L14.209-12.5293Q13.9551-11.9043 14.0674-11.4404Q14.1797-10.9766 14.5801-10.5664L16.875-8.25195Q17.2363-7.88086 17.5781-7.82227Q17.9199-7.76367 18.3398-7.8418L19.4043-8.03711L20.0684-7.36328L20.0293-6.80664Q20-6.43555 20.1221-6.12305Q20.2441-5.81055 20.6055-5.44922L21.3672-4.70703Q21.7285-4.3457 22.1533-4.33105Q22.5781-4.31641 22.9297-4.66797L25.8398-7.58789Q26.1914-7.93945 26.1816-8.35449Q26.1719-8.76953 25.8105-9.13086L25.0391-9.89258Q24.6875-10.2539 24.3799-10.3857Q24.0723-10.5176 23.7109-10.4883L23.1348-10.4395L22.4902-11.0742L22.7344-12.1973Q22.832-12.6172 22.6953-12.9834Q22.5586-13.3496 22.1191-13.7891L19.9219-15.9766Q18.6719-17.2168 17.2607-17.8369Q15.8496-18.457 14.4189-18.4814Q12.9883-18.5059 11.665-17.959Q10.3418-17.4121 9.25781-16.3281ZM10.752-15.957Q11.6602-16.6211 12.7002-16.9043Q13.7402-17.1875 14.8047-17.085Q15.8691-16.9824 16.8701-16.5137Q17.8711-16.0449 18.7012-15.2051L21.1328-12.793Q21.3086-12.6172 21.3525-12.4512Q21.3965-12.2852 21.3379-12.0312L21.0156-10.5469L22.5195-9.0625L23.5059-9.12109Q23.6914-9.13086 23.7891-9.09668Q23.8867-9.0625 24.0332-8.91602L24.6094-8.33984L22.168-5.89844L21.5918-6.47461Q21.4453-6.62109 21.4062-6.71875Q21.3672-6.81641 21.377-7.01172L21.4453-7.98828L19.9512-9.47266L18.4277-9.21875Q18.1836-9.16992 18.042-9.2041Q17.9004-9.23828 17.7148-9.41406L15.7129-11.416Q15.5176-11.5918 15.4932-11.7529Q15.4688-11.9141 15.5859-12.1875L16.4648-14.2773Q15.293-15.3711 13.8281-15.791Q12.3633-16.2109 10.8398-15.7617Q10.7227-15.7324 10.6885-15.8057Q10.6543-15.8789 10.752-15.957Z"/>
  </g>
  <text style="stroke:none;fill:black;font-family:sans-serif;font-size:13;font-weight:bold;" transform="matrix(1 0 0 1 1289 1953)">Exporting</text>
  <text style="stroke:none;fill:black;font-family:sans-serif;font-size:13;" transform="matrix(1 0 0 1 1289 1971)">Symbols should be outlined when exporting to ensure the</text>
  <text style="stroke:none;fill:black;font-family:sans-serif;font-size:13;" transform="matrix(1 0 0 1 1289 1989)">design is preserved when submitting to Xcode.</text>
  <text id="template-version" style="stroke:none;fill:black;font-family:sans-serif;font-size:13;text-anchor:end;" transform="matrix(1 0 0 1 3036 1933)">Template v.2.0</text>
  <text style="stroke:none;fill:black;font-family:sans-serif;font-size:13;text-anchor:end;" transform="matrix(1 0 0 1 3036 1951)">Requires Xcode 12 or greater</text>
  <text id="descriptive-name" style="stroke:none;fill:black;font-family:sans-serif;font-size:13;text-anchor:end;" transform="matrix(1 0 0 1 3036 1969)">Generated from list.star</text>
  <text style="stroke:none;fill:black;font-family:sans-serif;font-size:13;text-anchor:end;" transform="matrix(1 0 0 1 3036 1987)">Typeset at 100 points</text>
  <text style="stroke:none;fill:black;font-family:sans-serif;font-size:13;" transform="matrix(1 0 0 1 263 726)">Small</text>
  <text style="stroke:none;fill:black;font-family:sans-serif;font-size:13;" transform="matrix(1 0 0 1 263 1156)">Medium</text>
  <text style="stroke:none;fill:black;font-family:sans-serif;font-size:13;" transform="matrix(1 0 0 1 263 1586)">Large</text>
 </g>
 <g id="Guides">
  <g id="H-reference" style="fill:#27AAE1;stroke:none;" transform="matrix(1 0 0 1 339 696)">
   <path d="M0.976562 0L3.66211 0L29.3457-67.1387L30.0293-67.1387L30.0293-70.459L28.125-70.459ZM11.6699-24.4629L46.9727-24.4629L46.2402-26.709L12.4512-26.709ZM55.127 0L57.7637 0L30.6152-70.459L29.4434-70.459L29.4434-67.1387Z"/>
  </g>
  <line id="Baseline-S" style="fill:none;stroke:#27AAE1;opacity:1;stroke-width:0.5;" x1="263" x2="3036" y1="696" y2="696"/>
  <line id="Capline-S" style="fill:none;stroke:#27AAE1;opacity:1;stroke-width:0.5;" x1="263" x2="3036" y1="625.541" y2="625.541"/>
  <g id="H-reference" style="fill:#27AAE1;stroke:none;" transform="matrix(1 0 0 1 339 1126)">
   <path d="M0.976562 0L3.66211 0L29.3457-67.1387L30.0293-67.1387L30.0293-70.459L28.125-70.459ZM11.6699-24.4629L46.9727-24.4629L46.2402-26.709L12.4512-26.709ZM55.127 0L57.7637 0L30.6152-70.459L29.4434-70.459L29.4434-67.1387Z"/>
  </g>
  <line id="Baseline-M" style="fill:none;stroke:#27AAE1;opacity:1;stroke-width:0.5;" x1="263" x2="3036" y1="1126" y2="1126"/>
  <line id="Capline-M" style="fill:none;stroke:#27AAE1;opacity:1;stroke-width:0.5;" x1="263" x2="3036" y1="1055.54" y2="1055.54"/>
  <g id="H-reference" style="fill:#27AAE1;stroke:none;" transform="matrix(1 0 0 1 339 1556)">
   <path d="M0.976562 0L3.66211 0L29.3457-67.1387L30.0293-67.1387L30.0293-70.459L28.125-70.459ZM11.6699-24.4629L46.9727-24.4629L46.2402-26.709L12.4512-26.709ZM55.127 0L57.7637 0L30.6152-70.459L29.4434-70.459L29.4434-67.1387Z"/>
  </g>
  <line id="Baseline-L" style="fill:none;stroke:#27AAE1;opacity:1;stroke-width:0.5;" x1="263" x2="3036" y1="1556" y2="1556"/>
  <line id="Capline-L" style="fill:none;stroke:#27AAE1;opacity:1;stroke-width:0.5;" x1="263" x2="3036" y1="1485.54" y2="1485.54"/>
  <line id="left-margin" style="fill:none;stroke:#00AEEF;stroke-width:0.5;opacity:1.0;" x1="1388.21" x2="1388.21" y1="1030.79" y2="1150.12"/>
  <line id="right-margin" style="fill:none;stroke:#00AEEF;stroke-width:0.5;opacity:1.0;" x1="1511.48" x2="1511.48" y1="1030.79" y2="1150.12"/>
 </g>
 <g id="Symbols">
  <g id="Black-L" transform="matrix(1 0 0 1 2847.25 1556)">
   <path d="M68.7139-66.8076L147.097-66.8076Q150.886-66.8076 153.549-69.4408Q156.211-72.0741 156.211-75.9211Q156.211-79.7097 153.578-82.3722Q150.945-85.0346 147.097-85.0346L68.7139-85.0346Q64.9239-85.0346 62.2615-82.4014Q59.5991-79.7681 59.5991-75.9211Q59.5991-72.1325 62.2323-69.47Q64.8655-66.8076 68.7139-66.8076ZM68.7139-26.0745L147.097-26.0745Q150.886-26.0745 153.549-28.7084Q156.211-31.3422 156.211-35.1893Q156.211-38.9779 153.578-41.641Q150.945-44.3041 147.097-44.3041L68.7139-44.3041Q64.9239-44.3041 62.2615-41.6702Q59.5991-39.0363 59.5991-35.1893Q59.5991-31.4007 62.2323-28.7376Q64.8655-26.0745 68.7139-26.0745ZM68.7139 14.656L147.097 14.656Q150.886 14.656 153.549 12.0228Q156.211 9.38957 156.211 5.54253Q156.211 1.75391 153.578-0.908526Q150.945-3.57096 147.097-3.57096L68.7139-3.57096Q64.9239-3.57096 62.2615-0.93773Q59.5991 1.6955 59.5991 5.54253Q59.5991 9.33116 62.2323 11.9936Q64.8655 14.656 68.7139 14.656ZM25.9021-62.8303L30.7373-66.3958L35.4701-62.8303Q37.7458-61.1683 39.7607-62.58Q41.7757-63.9916 40.9246-66.5631L38.992-72.4425L43.7858-76.0092Q45.8617-77.5701 45.161-79.851Q44.4604-82.132 41.8318-82.132L35.8889-82.132L33.8966-88.4342Q33.1844-90.8215 30.7561-90.793Q28.3279-90.7644 27.5572-88.4342L25.565-82.132L19.5404-82.132Q16.9325-82.132 16.2325-79.851Q15.5325-77.5701 17.5877-76.0092L22.4593-72.3841L20.5488-66.5631Q19.6769-63.9916 21.6815-62.5903Q23.6861-61.189 25.9021-62.8303ZM25.9021-22.1205L30.7373-25.6872L35.4701-22.1205Q37.7458-20.4572 39.7607-21.8702Q41.7757-23.2831 40.9246-25.8533L38.992-31.7327L43.7858-35.2982Q45.8617-36.8603 45.161-39.1406Q44.4604-41.4209 41.8318-41.4209L35.8889-41.4209L33.8966-47.7231Q33.1844-50.1117 30.7561-50.0825Q28.3279-50.0533 27.5572-47.7231L25.565-41.4209L19.5404-41.4209Q16.9325-41.4209 16.2325-39.1406Q15.5325-36.8603 17.5877-35.2982L22.4593-31.6743L20.5488-25.8533Q19.6782-23.2831 21.6821-21.8812Q23.6861-20.4792 25.9021-22.1205ZM25.9021 18.6333L30.7373 15.0666L35.4701 18.6333Q37.7458 20.2966 39.7607 18.8843Q41.7757 17.472 40.9246 14.9005L38.992 9.02114L43.7858 5.45568Q45.8617 3.89485 45.161 1.61326Q44.4604-0.668327 41.8318-0.668327L35.8889-0.668327L33.8966-6.96927Q33.1844-9.35791 30.7561-9.32935Q28.3279-9.30079 27.5572-6.96927L25.565-0.668327L19.5404-0.668327Q16.9325-0.668327 16.2325 1.61326Q15.5325 3.89485 17.5877 5.45568L22.4593 9.07955L20.5488 14.9005Q19.6782 17.472 21.6821 18.8733Q23.6861 20.2746 25.9021 18.6333Z"/>
  </g>
  <g id="Heavy-L" transform="matrix(1 0 0 1 2552.17 1556)">
   <path d="M66.1192-67.1939L144.876-67.1939Q148.244-67.1939 150.601-69.5285Q152.958-71.863 152.958-75.2705Q152.958-78.6333 150.624-80.9902Q148.289-83.347 144.876-83.347L66.1192-83.347Q62.7504-83.347 60.3935-81.0125Q58.0366-78.6779 58.0366-75.2705Q58.0366-71.9076 60.3712-69.5508Q62.7058-67.1939 66.1192-67.1939ZM66.1192-27.1067L144.876-27.1067Q148.244-27.1067 150.601-29.4443Q152.958-31.7818 152.958-35.1893Q152.958-38.5521 150.624-40.912Q148.289-43.2719 144.876-43.2719L66.1192-43.2719Q62.7504-43.2719 60.3935-40.9343Q58.0366-38.5967 58.0366-35.1893Q58.0366-31.8265 60.3712-29.4666Q62.7058-27.1067 66.1192-27.1067ZM66.1192 12.9685L144.876 12.9685Q148.244 12.9685 150.601 10.6339Q152.958 8.29936 152.958 4.89191Q152.958 1.52908 150.624-0.827792Q148.289-3.18466 144.876-3.18466L66.1192-3.18466Q62.7504-3.18466 60.3935-0.850104Q58.0366 1.48446 58.0366 4.89191Q58.0366 8.25474 60.3712 10.6116Q62.7058 12.9685 66.1192 12.9685ZM25.253-62.8787L30.2061-66.5302L35.043-62.8787Q37.0968-61.3697 38.8988-62.6286Q40.7009-63.8875 39.9329-66.209L37.9642-72.2016L42.8579-75.8591Q44.7299-77.2579 44.1079-79.2891Q43.4859-81.3203 41.1258-81.3203L35.0379-81.3203L33.0185-87.7448Q32.3756-89.8636 30.2135-89.8443Q28.0515-89.825 27.3639-87.7448L25.3446-81.3203L19.1702-81.3203Q16.8399-81.3203 16.2209-79.2891Q15.6019-77.2579 17.4442-75.8591L22.4061-72.1569L20.4732-66.209Q19.6755-63.8875 21.4627-62.6435Q23.2499-61.3995 25.253-62.8787ZM25.253-22.8333L30.2061-26.4909L35.043-22.8333Q37.0968-21.3183 38.8988-22.5832Q40.7009-23.8481 39.9329-26.1636L37.9642-32.1562L42.8579-35.8077Q44.7299-37.2125 44.1079-39.2407Q43.4859-41.2689 41.1258-41.2689L35.0379-41.2689L33.0185-47.6933Q32.3756-49.8182 30.2135-49.7959Q28.0515-49.7736 27.3639-47.6933L25.3446-41.2689L19.1702-41.2689Q16.8399-41.2689 16.2209-39.2407Q15.6019-37.2125 17.4442-35.8077L22.4061-32.1115L20.4732-26.1636Q19.6816-23.8481 21.4657-22.6011Q23.2499-21.3541 25.253-22.8333ZM25.253 17.2837L30.2061 13.6261L35.043 17.2837Q37.0968 18.7987 38.8988 17.5368Q40.7009 16.2749 39.9329 13.9534L37.9642 7.96082L42.8579 4.3093Q44.7299 2.91052 44.1079 0.876285Q43.4859-1.15795 41.1258-1.15795L35.0379-1.15795L33.0185-7.57635Q32.3756-9.70124 30.2135-9.68194Q28.0515-9.66265 27.3639-7.57635L25.3446-1.15795L19.1702-1.15795Q16.8399-1.15795 16.2209 0.876285Q15.6019 2.91052 17.4442 4.3093L22.4061 8.00545L20.4732 13.9534Q19.6816 16.2749 21.4657 17.5189Q23.2499 18.7629 25.253 17.2837Z"/>
  </g>
  <g id="Bold-L" transform="matrix(1 0 0 1 2257.41 1556)">
   <path d="M62.8139-67.7181L142.273-67.7181Q145.116-67.7181 147.088-69.6754Q149.06-71.6327 149.06-74.4909Q149.06-77.3198 147.103-79.2917Q145.146-81.2636 142.273-81.2636L62.8139-81.2636Q59.9707-81.2636 57.9988-79.3063Q56.0269-77.349 56.0269-74.4909Q56.0269-71.6619 57.9842-69.69Q59.9415-67.7181 62.8139-67.7181ZM62.8139-28.4023L142.273-28.4023Q145.116-28.4023 147.088-30.3667Q149.06-32.3311 149.06-35.1893Q149.06-38.0182 147.103-39.9972Q145.146-41.9762 142.273-41.9762L62.8139-41.9762Q59.9707-41.9762 57.9988-40.0118Q56.0269-38.0474 56.0269-35.1893Q56.0269-32.3603 57.9842-30.3813Q59.9415-28.4023 62.8139-28.4023ZM62.8139 10.885L142.273 10.885Q145.116 10.885 147.088 8.92773Q149.06 6.97044 149.06 4.11229Q149.06 1.28333 147.103-0.688552Q145.146-2.66044 142.273-2.66044L62.8139-2.66044Q59.9707-2.66044 57.9988-0.703154Q56.0269 1.25413 56.0269 4.11229Q56.0269 6.94124 57.9842 8.91312Q59.9415 10.885 62.8139 10.885ZM24.4175-62.9789L29.4737-66.7037L34.3984-62.9789Q36.178-61.667 37.7131-62.7334Q39.2482-63.7998 38.5819-65.8071L36.5843-71.8946L41.5666-75.6336Q43.1789-76.8281 42.6549-78.5497Q42.131-80.2714 40.1087-80.2714L33.896-80.2714L31.8549-86.798Q31.2982-88.5791 29.4698-88.5716Q27.6414-88.5641 27.0556-86.798L25.0145-80.2714L18.7072-80.2714Q16.7218-80.2714 16.205-78.5497Q15.6882-76.8281 17.2635-75.6336L22.2977-71.8654L20.3513-65.8071Q19.6481-63.7998 21.1647-62.7519Q22.6813-61.704 24.4175-62.9789ZM24.4175-23.7286L29.4737-27.4676L34.3984-23.7286Q36.178-22.4025 37.7131-23.483Q39.2482-24.5636 38.5819-26.5568L36.5843-32.6443L41.5666-36.3691Q43.1789-37.5778 42.6549-39.2923Q42.131-41.0068 40.1087-41.0068L33.896-41.0068L31.8549-47.5334Q31.2982-49.3287 29.4698-49.3141Q27.6414-49.2995 27.0556-47.5334L25.0145-41.0068L18.7072-41.0068Q16.7218-41.0068 16.205-39.2923Q15.6882-37.5778 17.2635-36.3691L22.2977-32.6151L20.3513-26.5568Q19.6623-24.5636 21.1718-23.5086Q22.6813-22.4537 24.4175-23.7286ZM24.4175 15.6242L29.4737 11.8852L34.3984 15.6242Q36.178 16.9503 37.7131 15.8769Q39.2482 14.8034 38.5819 12.796L36.5843 6.70851L41.5666 2.98373Q43.1789 1.78925 42.6549 0.0605025Q42.131-1.66824 40.1087-1.66824L33.896-1.66824L31.8549-8.18061Q31.2982-9.97593 29.4698-9.96844Q27.6414-9.96095 27.0556-8.18061L25.0145-1.66824L18.7072-1.66824Q16.7218-1.66824 16.205 0.0605025Q15.6882 1.78925 17.2635 2.98373L22.2977 6.73771L20.3513 12.796Q19.6623 14.8034 21.1718 15.8513Q22.6813 16.8991 24.4175 15.6242Z"/>
  </g>
  <g id="Semibold-L" transform="matrix(1 0 0 1 1962.04 1556)">
   <path d="M60.5351-68.0795L140.479-68.0795Q142.96-68.0795 144.666-69.7767Q146.373-71.4739 146.373-73.9534Q146.373-76.4143 144.676-78.1208Q142.978-79.8272 140.479-79.8272L60.5351-79.8272Q58.0544-79.8272 56.3479-78.13Q54.6414-76.4329 54.6414-73.9534Q54.6414-71.4925 56.3386-69.786Q58.0358-68.0795 60.5351-68.0795ZM60.5351-29.2956L140.479-29.2956Q142.96-29.2956 144.666-31.0027Q146.373-32.7098 146.373-35.1893Q146.373-37.6502 144.676-39.3666Q142.978-41.083 140.479-41.083L60.5351-41.083Q58.0544-41.083 56.3479-39.3759Q54.6414-37.6688 54.6414-35.1893Q54.6414-32.7284 56.3386-31.012Q58.0358-29.2956 60.5351-29.2956ZM60.5351 9.44867L140.479 9.44867Q142.96 9.44867 144.666 7.75148Q146.373 6.0543 146.373 3.57482Q146.373 1.11391 144.676-0.592561Q142.978-2.29904 140.479-2.29904L60.5351-2.29904Q58.0544-2.29904 56.3479-0.601847Q54.6414 1.09534 54.6414 3.57482Q54.6414 6.03572 56.3386 7.7422Q58.0358 9.44867 60.5351 9.44867ZM23.8415-63.048L28.9688-66.8233L33.9539-63.048Q35.5445-61.872 36.8956-62.8056Q38.2467-63.7393 37.6505-65.5301L35.6329-71.683L40.6764-75.4782Q42.1096-76.5318 41.6533-78.04Q41.197-79.5482 39.4075-79.5482L33.1087-79.5482L31.0527-86.1453Q30.5555-87.6935 28.9571-87.6942Q27.3588-87.6948 26.843-86.1453L24.787-79.5482L18.3879-79.5482Q16.6404-79.5482 16.194-78.04Q15.7476-76.5318 17.1389-75.4782L22.223-71.6645L20.2673-65.5301Q19.6291-63.7393 20.9592-62.8266Q22.2893-61.9139 23.8415-63.048ZM23.8415-24.3458L28.9688-28.1409L33.9539-24.3458Q35.5445-23.1498 36.8956-24.1034Q38.2467-25.0569 37.6505-26.8278L35.6329-32.9808L40.6764-36.7561Q42.1096-37.8296 41.6533-39.3278Q41.197-40.8261 39.4075-40.8261L33.1087-40.8261L31.0527-47.4231Q30.5555-48.9912 28.9571-48.982Q27.3588-48.9727 26.843-47.4231L24.787-40.8261L18.3879-40.8261Q16.6404-40.8261 16.194-39.3278Q15.7476-37.8296 17.1389-36.7561L22.223-32.9622L20.2673-26.8278Q19.649-25.0569 20.9692-24.1343Q22.2893-23.2117 23.8415-24.3458ZM23.8415 14.4802L28.9688 10.685L33.9539 14.4802Q35.5445 15.6761 36.8956 14.7325Q38.2467 13.7889 37.6505 11.9981L35.6329 5.84517L40.6764 2.06989Q42.1096 1.01625 41.6533-0.501893Q41.197-2.02004 39.4075-2.02004L33.1087-2.02004L31.0527-8.59719Q30.5555-10.1653 28.9571-10.1659Q27.3588-10.1666 26.843-8.59719L24.787-2.02004L18.3879-2.02004Q16.6404-2.02004 16.194-0.501893Q15.7476 1.01625 17.1389 2.06989L22.223 5.86374L20.2673 11.9981Q19.649 13.7889 20.9692 14.7016Q22.2893 15.6143 23.8415 14.4802Z"/>
  </g>
  <g id="Medium-L" transform="matrix(1 0 0 1 1666.35 1556)">
   <path d="M58.8073-68.3536L139.119-68.3536Q141.325-68.3536 142.83-69.8535Q144.335-71.3535 144.335-73.5459Q144.335-75.7277 142.835-77.2329Q141.335-78.7381 139.119-78.7381L58.8073-78.7381Q56.6013-78.7381 55.0961-77.2382Q53.5909-75.7382 53.5909-73.5459Q53.5909-71.364 55.0908-69.8588Q56.5908-68.3536 58.8073-68.3536ZM58.8073-29.9728L139.119-29.9728Q141.325-29.9728 142.83-31.4849Q144.335-32.9969 144.335-35.1893Q144.335-37.3711 142.835-38.8884Q141.335-40.4057 139.119-40.4057L58.8073-40.4057Q56.6013-40.4057 55.0961-38.8937Q53.5909-37.3816 53.5909-35.1893Q53.5909-33.0074 55.0908-31.4901Q56.5908-29.9728 58.8073-29.9728ZM58.8073 8.35958L139.119 8.35958Q141.325 8.35958 142.83 6.85961Q144.335 5.35963 144.335 3.16729Q144.335 0.985455 142.835-0.519776Q141.335-2.02501 139.119-2.02501L58.8073-2.02501Q56.6013-2.02501 55.0961-0.525033Q53.5909 0.974942 53.5909 3.16729Q53.5909 5.34912 55.0908 6.85435Q56.5908 8.35958 58.8073 8.35958ZM23.4047-63.1004L28.586-66.914L33.617-63.1004Q35.0642-62.0274 36.2758-62.8604Q37.4873-63.6934 36.9443-65.32L34.9116-71.5226L40.0014-75.3603Q41.2989-76.3072 40.8938-77.6535Q40.4887-78.9999 38.8758-78.9999L32.5118-78.9999L30.4445-85.6504Q29.9923-87.022 28.5684-87.0288Q27.1444-87.0357 26.6818-85.6504L24.6145-78.9999L18.1459-78.9999Q16.5787-78.9999 16.1857-77.6535Q15.7927-76.3072 17.0445-75.3603L22.1664-71.5121L20.2036-65.32Q19.6148-63.6934 20.8035-62.8833Q21.9921-62.0731 23.4047-63.1004ZM23.4047-24.8137L28.586-28.6514L33.617-24.8137Q35.0642-23.7166 36.2758-24.5737Q37.4873-25.4309 36.9443-27.0334L34.9116-33.2359L40.0014-37.0495Q41.2989-38.0205 40.8938-39.3548Q40.4887-40.6891 38.8758-40.6891L32.5118-40.6891L30.4445-47.3395Q29.9923-48.7354 28.5684-48.7301Q27.1444-48.7249 26.6818-47.3395L24.6145-40.6891L18.1459-40.6891Q16.5787-40.6891 16.1857-39.3548Q15.7927-38.0205 17.0445-37.0495L22.1664-33.2254L20.2036-27.0334Q19.6389-25.4309 20.8155-24.6087Q21.9921-23.7865 23.4047-24.8137ZM23.4047 13.6128L28.586 9.77503L33.617 13.6128Q35.0642 14.7099 36.2758 13.8648Q37.4873 13.0197 36.9443 11.3931L34.9116 5.19054L40.0014 1.37698Q41.2989 0.430135 40.8938-0.928324Q40.4887-2.28678 38.8758-2.28678L32.5118-2.28678L30.4445-8.91306Q29.9923-10.3089 28.5684-10.3157Q27.1444-10.3225 26.6818-8.91306L24.6145-2.28678L18.1459-2.28678Q16.5787-2.28678 16.1857-0.928324Q15.7927 0.430135 17.0445 1.37698L22.1664 5.20106L20.2036 11.3931Q19.6389 13.0197 20.8155 13.8299Q21.9921 14.64 23.4047 13.6128Z"/>
  </g>
  <g id="Regular-L" transform="matrix(1 0 0 1 1370.96 1556)">
   <path d="M56.5536-68.711L137.344-68.711Q139.192-68.711 140.435-69.9537Q141.677-71.1965 141.677-73.0143Q141.677-74.8321 140.435-76.0749Q139.192-77.3176 137.344-77.3176L56.5536-77.3176Q54.7061-77.3176 53.4633-76.0749Q52.2206-74.8321 52.2206-73.0143Q52.2206-71.1965 53.4633-69.9537Q54.7061-68.711 56.5536-68.711ZM56.5536-30.8562L137.344-30.8562Q139.192-30.8562 140.435-32.1138Q141.677-33.3715 141.677-35.1893Q141.677-37.0071 140.435-38.2647Q139.192-39.5223 137.344-39.5223L56.5536-39.5223Q54.7061-39.5223 53.4633-38.2647Q52.2206-37.0071 52.2206-35.1893Q52.2206-33.3715 53.4633-32.1138Q54.7061-30.8562 56.5536-30.8562ZM56.5536 6.93903L137.344 6.93903Q139.192 6.93903 140.435 5.69629Q141.677 4.45355 141.677 2.63573Q141.677 0.8179 140.435-0.42484Q139.192-1.66758 137.344-1.66758L56.5536-1.66758Q54.7061-1.66758 53.4633-0.42484Q52.2206 0.8179 52.2206 2.63573Q52.2206 4.45355 53.4633 5.69629Q54.7061 6.93903 56.5536 6.93903ZM22.8351-63.1687L28.0867-67.0322L33.1774-63.1687Q34.4377-62.2301 35.4673-62.9319Q36.4968-63.6336 36.0231-65.046L33.9707-71.3133L39.1209-75.2066Q40.2414-76.0141 39.9032-77.1494Q39.5649-78.2847 38.1823-78.2847L31.7332-78.2847L29.6511-85.0048Q29.2578-86.1462 28.0613-86.1611Q26.8649-86.1759 26.4716-85.0048L24.3894-78.2847L17.8302-78.2847Q16.4982-78.2847 16.1749-77.1494Q15.8515-76.0141 16.9213-75.2066L22.0924-71.3133L20.1205-65.046Q19.5961-63.6336 20.6003-62.9572Q21.6045-62.2807 22.8351-63.1687ZM22.8351-25.4241L28.0867-29.3174L33.1774-25.4241Q34.4377-24.4557 35.4673-25.1873Q36.4968-25.9188 36.0231-27.3014L33.9707-33.5687L39.1209-37.4322Q40.2414-38.2695 39.9032-39.39Q39.5649-40.5104 38.1823-40.5104L31.7332-40.5104L29.6511-47.2305Q29.2578-48.4016 28.0613-48.4016Q26.8649-48.4016 26.4716-47.2305L24.3894-40.5104L17.8302-40.5104Q16.4982-40.5104 16.1749-39.39Q15.8515-38.2695 16.9213-37.4322L22.0924-33.5687L20.1205-27.3014Q19.6258-25.9188 20.6151-25.2275Q21.6045-24.5362 22.8351-25.4241ZM22.8351 12.4813L28.0867 8.58806L33.1774 12.4813Q34.4377 13.4497 35.4673 12.733Q36.4968 12.0164 36.0231 10.604L33.9707 4.33669L39.1209 0.473184Q40.2414-0.334366 39.9032-1.48454Q39.5649-2.63471 38.1823-2.63471L31.7332-2.63471L29.6511-9.32506Q29.2578-10.4962 28.0613-10.511Q26.8649-10.5259 26.4716-9.32506L24.3894-2.63471L17.8302-2.63471Q16.4982-2.63471 16.1749-1.48454Q15.8515-0.334366 16.9213 0.473184L22.0924 4.33669L20.1205 10.604Q19.6258 12.0164 20.6151 12.6928Q21.6045 13.3693 22.8351 12.4813Z"/>
  </g>
  <g id="Light-L" transform="matrix(1 0 0 1 1075.18 1556)">
   <path d="M53.6806-69.3677L136.503-69.3677Q137.96-69.3677 138.895-70.3026Q139.83-71.2375 139.83-72.6449Q139.83-74.0523 138.895-74.9872Q137.96-75.9221 136.503-75.9221L53.6806-75.9221Q52.2229-75.9221 51.288-74.9872Q50.3531-74.0523 50.3531-72.6449Q50.3531-71.2375 51.288-70.3026Q52.2229-69.3677 53.6806-69.3677ZM53.6806-31.8618L136.503-31.8618Q137.96-31.8618 138.895-32.8219Q139.83-33.7819 139.83-35.1893Q139.83-36.5967 138.895-37.5567Q137.96-38.5167 136.503-38.5167L53.6806-38.5167Q52.2229-38.5167 51.288-37.5567Q50.3531-36.5967 50.3531-35.1893Q50.3531-33.7819 51.288-32.8219Q52.2229-31.8618 53.6806-31.8618ZM53.6806 5.54354L136.503 5.54354Q137.96 5.54354 138.895 4.60863Q139.83 3.67372 139.83 2.26633Q139.83 0.858944 138.895-0.0759661Q137.96-1.01088 136.503-1.01088L53.6806-1.01088Q52.2229-1.01088 51.288-0.0759661Q50.3531 0.858944 50.3531 2.26633Q50.3531 3.67372 51.288 4.60863Q52.2229 5.54354 53.6806 5.54354ZM22.0552-63.4971L27.1016-67.1964L31.9871-63.4971Q33.0628-62.7431 33.8871-63.291Q34.7114-63.8389 34.2993-65.005L32.329-71.0465L37.315-74.7961Q38.2097-75.4395 37.9433-76.3593Q37.6769-77.2792 36.5611-77.2792L30.3788-77.2792L28.3582-83.753Q28.0265-84.6276 27.0865-84.6527Q26.1466-84.6778 25.8149-83.753L23.7943-77.2792L17.4813-77.2792Q16.3956-77.2792 16.1544-76.3593Q15.9131-75.4395 16.7776-74.7961L21.7436-71.0465L19.8537-65.005Q19.4114-63.8389 20.2206-63.3061Q21.0299-62.7733 22.0552-63.4971ZM22.0552-26.1219L27.1016-29.8715L31.9871-26.1219Q33.0628-25.3177 33.8871-25.9158Q34.7114-26.5139 34.2993-27.6298L32.329-33.6713L37.315-37.3707Q38.2097-38.0643 37.9433-38.959Q37.6769-39.8537 36.5611-39.8537L30.3788-39.8537L28.3582-46.3275Q28.0265-47.2524 27.0865-47.2524Q26.1466-47.2524 25.8149-46.3275L23.7943-39.8537L17.4813-39.8537Q16.3956-39.8537 16.1544-38.959Q15.9131-38.0643 16.7776-37.3707L21.7436-33.6713L19.8537-27.6298Q19.4616-26.5139 20.2457-25.956Q21.0299-25.3981 22.0552-26.1219ZM22.0552 11.4142L27.1016 7.66457L31.9871 11.4142Q33.0628 12.2184 33.8871 11.6454Q34.7114 11.0724 34.2993 9.90625L32.329 3.86469L37.315 0.165354Q38.2097-0.47802 37.9433-1.42297Q37.6769-2.36793 36.5611-2.36793L30.3788-2.36793L28.3582-8.79149Q28.0265-9.71634 27.0865-9.74147Q26.1466-9.7666 25.8149-8.79149L23.7943-2.36793L17.4813-2.36793Q16.3956-2.36793 16.1544-1.42297Q15.9131-0.47802 16.7776 0.165354L21.7436 3.86469L19.8537 9.90625Q19.4616 11.0724 20.2457 11.6052Q21.0299 12.138 22.0552 11.4142Z"/>
  </g>
  <g id="Thin-L" transform="matrix(1 0 0 1 779.686 1556)">
   <path d="M49.8807-70.2362L135.39-70.2362Q136.332-70.2362 136.86-70.764Q137.388-71.2918 137.388-72.1563Q137.388-73.0209 136.86-73.5487Q136.332-74.0764 135.39-74.0764L49.8807-74.0764Q48.9387-74.0764 48.411-73.5487Q47.8832-73.0209 47.8832-72.1563Q47.8832-71.2918 48.411-70.764Q48.9387-70.2362 49.8807-70.2362ZM49.8807-33.1918L135.39-33.1918Q136.332-33.1918 136.86-33.7583Q137.388-34.3247 137.388-35.1893Q137.388-36.0538 136.86-36.6203Q136.332-37.1868 135.39-37.1868L49.8807-37.1868Q48.9387-37.1868 48.411-36.6203Q47.8832-36.0538 47.8832-35.1893Q47.8832-34.3247 48.411-33.7583Q48.9387-33.1918 49.8807-33.1918ZM49.8807 3.69788L135.39 3.69788Q136.332 3.69788 136.86 3.1701Q137.388 2.64232 137.388 1.77778Q137.388 0.913228 136.86 0.385447Q136.332-0.142334 135.39-0.142334L49.8807-0.142334Q48.9387-0.142334 48.411 0.385447Q47.8832 0.913228 47.8832 1.77778Q47.8832 2.64232 48.411 3.1701Q48.9387 3.69788 49.8807 3.69788ZM21.0238-63.9313L25.7988-67.4135L30.4129-63.9313Q31.2443-63.4217 31.7972-63.766Q32.3501-64.1103 32.0193-64.9507L30.1576-70.6937L34.9265-74.2533Q35.5226-74.6795 35.3512-75.3144Q35.1798-75.9492 34.4168-75.9492L28.5874-75.9492L26.6483-82.0973Q26.3979-82.6191 25.7973-82.6578Q25.1966-82.6965 24.9463-82.0973L23.0072-75.9492L17.0199-75.9492Q16.2599-75.9492 16.1272-75.3144Q15.9945-74.6795 16.5876-74.2533L21.2822-70.6937L19.5008-64.9507Q19.1671-64.1103 19.7185-63.7675Q20.2699-63.4247 21.0238-63.9313ZM21.0238-27.0447L25.7988-30.6043L30.4129-27.0447Q31.2443-26.4576 31.7972-26.8793Q32.3501-27.301 32.0193-28.0641L30.1576-33.8071L34.9265-37.2893Q35.5226-37.7929 35.3512-38.389Q35.1798-38.9852 34.4168-38.9852L28.5874-38.9852L26.6483-45.1333Q26.3979-45.7324 25.7973-45.7324Q25.1966-45.7324 24.9463-45.1333L23.0072-38.9852L17.0199-38.9852Q16.2599-38.9852 16.1272-38.389Q15.9945-37.7929 16.5876-37.2893L21.2822-33.8071L19.5008-28.0641Q19.2445-27.301 19.7572-26.9195Q20.2699-26.538 21.0238-27.0447ZM21.0238 10.0028L25.7988 6.44318L30.4129 10.0028Q31.2443 10.5899 31.7972 10.2068Q32.3501 9.82384 32.0193 8.98343L30.1576 3.24042L34.9265-0.241775Q35.5226-0.668014 35.3512-1.34155Q35.1798-2.01508 34.4168-2.01508L28.5874-2.01508L26.6483-8.0858Q26.3979-8.68495 25.7973-8.72365Q25.1966-8.76235 24.9463-8.0858L23.0072-2.01508L17.0199-2.01508Q16.2599-2.01508 16.1272-1.34155Q15.9945-0.668014 16.5876-0.241775L21.2822 3.24042L19.5008 8.98343Q19.2445 9.82384 19.7572 10.1666Q20.2699 10.5094 21.0238 10.0028Z"/>
  </g>
  <g id="Ultralight-L" transform="matrix(1 0 0 1 483.601 1556)">
   <path d="M47.9344-70.6811L134.82-70.6811Q135.498-70.6811 135.817-71.0003Q136.136-71.3196 136.136-71.9061Q136.136-72.4926 135.817-72.8119Q135.498-73.1311 134.82-73.1311L47.9344-73.1311Q47.2566-73.1311 46.9373-72.8119Q46.6181-72.4926 46.6181-71.9061Q46.6181-71.3196 46.9373-71.0003Q47.2566-70.6811 47.9344-70.6811ZM47.9344-33.873L134.82-33.873Q135.498-33.873 135.817-34.2379Q136.136-34.6028 136.136-35.1893Q136.136-35.7758 135.817-36.1407Q135.498-36.5056 134.82-36.5056L47.9344-36.5056Q47.2566-36.5056 46.9373-36.1407Q46.6181-35.7758 46.6181-35.1893Q46.6181-34.6028 46.9373-34.2379Q47.2566-33.873 47.9344-33.873ZM47.9344 2.75255L134.82 2.75255Q135.498 2.75255 135.817 2.4333Q136.136 2.11405 136.136 1.52754Q136.136 0.941032 135.817 0.621781Q135.498 0.30253 134.82 0.30253L47.9344 0.30253Q47.2566 0.30253 46.9373 0.621781Q46.6181 0.941032 46.6181 1.52754Q46.6181 2.11405 46.9373 2.4333Q47.2566 2.75255 47.9344 2.75255ZM20.4956-64.1538L25.1315-67.5247L29.6066-64.1538Q30.3128-63.7692 30.7267-64.0093Q31.1406-64.2493 30.8516-64.9229L29.0454-70.513L33.7031-73.9753Q34.1464-74.2903 34.0236-74.7791Q33.9009-75.268 33.3186-75.268L27.6699-75.268L25.7724-81.2493Q25.5638-81.5903 25.1369-81.636Q24.7101-81.6816 24.5014-81.2493L22.604-75.268L16.7836-75.268Q16.1904-75.268 16.1133-74.7791Q16.0362-74.2903 16.4903-73.9753L21.0458-70.513L19.3201-64.9229Q19.042-64.2493 19.4613-64.0038Q19.8806-63.7583 20.4956-64.1538ZM20.4956-27.5174L25.1315-30.9796L29.6066-27.5174Q30.3128-27.0415 30.7267-27.3729Q31.1406-27.7042 30.8516-28.2865L29.0454-33.8766L33.7031-37.2475Q34.1464-37.6539 34.0236-38.0971Q33.9009-38.5403 33.3186-38.5403L27.6699-38.5403L25.7724-44.5216Q25.5638-44.9539 25.1369-44.9539Q24.7101-44.9539 24.5014-44.5216L22.604-38.5403L16.7836-38.5403Q16.1904-38.5403 16.1133-38.0971Q16.0362-37.6539 16.4903-37.2475L21.0458-33.8766L19.3201-28.2865Q19.1333-27.7042 19.507-27.4131Q19.8806-27.1219 20.4956-27.5174ZM20.4956 9.27988L25.1315 5.81759L29.6066 9.27988Q30.3128 9.75574 30.7267 9.47004Q31.1406 9.18434 30.8516 8.51076L29.0454 2.92068L33.7031-0.450305Q34.1464-0.765328 34.0236-1.29984Q33.9009-1.83436 33.3186-1.83436L27.6699-1.83436L25.7724-7.72435Q25.5638-8.15667 25.1369-8.20233Q24.7101-8.24798 24.5014-7.72435L22.604-1.83436L16.7836-1.83436Q16.1904-1.83436 16.1133-1.29984Q16.0362-0.765328 16.4903-0.450305L21.0458 2.92068L19.3201 8.51076Q19.1333 9.18434 19.507 9.42983Q19.8806 9.67532 20.4956 9.27988Z"/>
  </g>
  <g id="Black-M" transform="matrix(1 0 0 1 2865.39 1126)">
   <path d="M55.0761-59.4514L115.757-59.4514Q119.002-59.4514 121.285-61.7064Q123.569-63.9615 123.569-67.2641Q123.569-70.5096 121.314-72.7932Q119.059-75.0768 115.757-75.0768L55.0761-75.0768Q51.8309-75.0768 49.5473-72.8218Q47.2637-70.5667 47.2637-67.2641Q47.2637-64.0186 49.5188-61.735Q51.7738-59.4514 55.0761-59.4514ZM55.0761-27.3859L115.757-27.3859Q119.002-27.3859 121.285-29.6408Q123.569-31.8957 123.569-35.1983Q123.569-38.4439 121.314-40.7273Q119.059-43.0108 115.757-43.0108L55.0761-43.0108Q51.8309-43.0108 49.5473-40.7559Q47.2637-38.501 47.2637-35.1983Q47.2637-31.9528 49.5188-29.6693Q51.7738-27.3859 55.0761-27.3859ZM55.0761 4.68017L115.757 4.68017Q119.002 4.68017 121.285 2.42512Q123.569 0.170062 123.569-3.13257Q123.569-6.37812 121.314-8.66172Q119.059-10.9453 115.757-10.9453L55.0761-10.9453Q51.8309-10.9453 49.5473-8.69027Q47.2637-6.43521 47.2637-3.13257Q47.2637 0.112966 49.5188 2.39657Q51.7738 4.68017 55.0761 4.68017ZM20.5196-56.6159L24.1365-59.282L27.6859-56.6159Q29.6147-55.2218 31.331-56.4259Q33.0472-57.63 32.3247-59.8037L30.8696-64.2309L34.4755-66.8967Q36.2284-68.2229 35.6277-70.1755Q35.027-72.1281 32.7959-72.1281L28.3525-72.1281L26.8407-76.8723Q26.2375-78.9165 24.1623-78.8878Q22.0872-78.8591 21.4269-76.8723L19.9151-72.1281L15.4097-72.1281Q13.1841-72.1281 12.5832-70.1755Q11.9824-68.2229 13.7298-66.8967L17.3986-64.1738L15.9487-59.8037Q15.2207-57.63 16.9342-56.4286Q18.6476-55.2273 20.5196-56.6159ZM20.5196-24.5553L24.1365-27.2211L27.6859-24.5553Q29.6147-23.1615 31.331-24.3653Q33.0472-25.5691 32.3247-27.7431L30.8696-32.1703L34.4755-34.8364Q36.2284-36.1624 35.6277-38.1151Q35.027-40.0678 32.7959-40.0678L28.3525-40.0678L26.8407-44.8121Q26.2375-46.8559 24.1623-46.8274Q22.0872-46.7988 21.4269-44.8121L19.9151-40.0678L15.4097-40.0678Q13.1841-40.0678 12.5832-38.1151Q11.9824-36.1624 13.7298-34.8364L17.3986-32.1132L15.9487-27.7431Q15.2204-25.5691 16.934-24.3679Q18.6476-23.1667 20.5196-24.5553ZM20.5196 7.51566L24.1365 4.84986L27.6859 7.51566Q29.6147 8.90944 31.331 7.70549Q33.0472 6.50153 32.3247 4.32783L30.8696-0.0993472L34.4755-2.76545Q36.2284-4.09172 35.6277-6.04414Q35.027-7.99657 32.7959-7.99657L28.3525-7.99657L26.8407-12.7411Q26.2375-14.785 24.1623-14.7563Q22.0872-14.7276 21.4269-12.7411L19.9151-7.99657L15.4097-7.99657Q13.1841-7.99657 12.5832-6.04414Q11.9824-4.09172 13.7298-2.76545L17.3986-0.0422509L15.9487 4.32783Q15.2204 6.50153 16.934 7.70288Q18.6476 8.90423 20.5196 7.51566Z"/>
  </g>
  <g id="Heavy-M" transform="matrix(1 0 0 1 2570.18 1126)">
   <path d="M52.8048-59.7684L113.663-59.7684Q116.533-59.7684 118.546-61.7599Q120.559-63.7514 120.559-66.6622Q120.559-69.5293 118.568-71.5426Q116.576-73.5559 113.663-73.5559L52.8048-73.5559Q49.9352-73.5559 47.9219-71.5644Q45.9086-69.5729 45.9086-66.6622Q45.9086-63.795 47.9001-61.7817Q49.8915-59.7684 52.8048-59.7684ZM52.8048-28.3022L113.663-28.3022Q116.533-28.3022 118.546-30.2949Q120.559-32.2876 120.559-35.1983Q120.559-38.0655 118.568-40.08Q116.576-42.0945 113.663-42.0945L52.8048-42.0945Q49.9352-42.0945 47.9219-40.1018Q45.9086-38.1091 45.9086-35.1983Q45.9086-32.3312 47.9001-30.3167Q49.8915-28.3022 52.8048-28.3022ZM52.8048 3.15922L113.663 3.15922Q116.533 3.15922 118.546 1.16774Q120.559-0.823745 120.559-3.73453Q120.559-6.60169 118.568-8.61498Q116.576-10.6283 113.663-10.6283L52.8048-10.6283Q49.9352-10.6283 47.9219-8.63679Q45.9086-6.64531 45.9086-3.73453Q45.9086-0.867367 47.9001 1.14593Q49.8915 3.15922 52.8048 3.15922ZM19.957-56.6329L23.7081-59.3983L27.3783-56.6329Q29.1071-55.3714 30.6342-56.4403Q32.1612-57.5093 31.5143-59.4613L30.0163-64.02L33.735-66.7878Q35.3094-67.9708 34.779-69.6991Q34.2486-71.4274 32.2553-71.4274L27.6455-71.4274L26.1015-76.3138Q25.5605-78.1202 23.7218-78.0996Q21.8831-78.079 21.2985-76.3138L19.7545-71.4274L15.08-71.4274Q13.103-71.4274 12.5738-69.6991Q12.0446-67.9708 13.6028-66.7878L17.3788-63.9763L15.8995-59.4613Q15.2364-57.5093 16.7553-56.4484Q18.2742-55.3876 19.957-56.6329ZM19.957-25.1878L23.7081-27.9556L27.3783-25.1878Q29.1071-23.9238 30.6342-24.9952Q32.1612-26.0666 31.5143-28.0162L30.0163-32.5748L33.735-35.3402Q35.3094-36.5257 34.779-38.2528Q34.2486-39.9799 32.2553-39.9799L27.6455-39.9799L26.1015-44.8663Q25.5605-46.675 23.7218-46.6532Q21.8831-46.6314 21.2985-44.8663L19.7545-39.9799L15.08-39.9799Q13.103-39.9799 12.5738-38.2528Q12.0446-36.5257 13.6028-35.3402L17.3788-32.5312L15.8995-28.0162Q15.2388-26.0666 16.7565-25.0045Q18.2742-23.9425 19.957-25.1878ZM19.957 6.29472L23.7081 3.52689L27.3783 6.29472Q29.1071 7.5587 30.6342 6.48853Q32.1612 5.41836 31.5143 3.46629L30.0163-1.09234L33.735-3.85772Q35.3094-5.04072 34.779-6.77027Q34.2486-8.49982 32.2553-8.49982L27.6455-8.49982L26.1015-13.3838Q25.5605-15.1925 23.7218-15.1719Q21.8831-15.1514 21.2985-13.3838L19.7545-8.49982L15.08-8.49982Q13.103-8.49982 12.5738-6.77027Q12.0446-5.04072 13.6028-3.85772L17.3788-1.04872L15.8995 3.46629Q15.2388 5.41836 16.7565 6.47919Q18.2742 7.54002 19.957 6.29472Z"/>
  </g>
  <g id="Bold-M" transform="matrix(1 0 0 1 2275.15 1126)">
   <path d="M50.2639-60.1231L111.321-60.1231Q113.771-60.1231 115.482-61.8197Q117.192-63.5163 117.192-65.9888Q117.192-68.4327 115.496-70.1436Q113.799-71.8545 111.321-71.8545L50.2639-71.8545Q47.8145-71.8545 46.1036-70.1579Q44.3927-68.4612 44.3927-65.9888Q44.3927-63.5449 46.0893-61.834Q47.786-60.1231 50.2639-60.1231ZM50.2639-29.3271L111.321-29.3271Q113.771-29.3271 115.482-31.0265Q117.192-32.7259 117.192-35.1983Q117.192-37.6422 115.496-39.3559Q113.799-41.0696 111.321-41.0696L50.2639-41.0696Q47.8145-41.0696 46.1036-39.3702Q44.3927-37.6708 44.3927-35.1983Q44.3927-32.7545 46.0893-31.0408Q47.786-29.3271 50.2639-29.3271ZM50.2639 1.45781L111.321 1.45781Q113.771 1.45781 115.482-0.238825Q117.192-1.93546 117.192-4.4079Q117.192-6.85178 115.496-8.5627Q113.799-10.2736 111.321-10.2736L50.2639-10.2736Q47.8145-10.2736 46.1036-8.57697Q44.3927-6.88033 44.3927-4.4079Q44.3927-1.96401 46.0893-0.253099Q47.786 1.45781 50.2639 1.45781ZM19.3277-56.652L23.2289-59.5284L27.0341-56.652Q28.5393-55.5387 29.8547-56.4565Q31.1701-57.3742 30.6078-59.0783L29.0618-63.784L32.9066-66.666Q34.2814-67.6887 33.8296-69.1662Q33.3778-70.6437 31.6506-70.6437L26.8547-70.6437L25.2747-75.6891Q24.8032-77.2293 23.2291-77.2178Q21.6549-77.2063 21.1549-75.6891L19.5749-70.6437L14.7111-70.6437Q13.0122-70.6437 12.5631-69.1662Q12.1141-67.6887 13.4606-66.666L17.3567-63.7555L15.8445-59.0783Q15.2539-57.3742 16.5552-56.4706Q17.8565-55.5669 19.3277-56.652ZM19.3277-25.8953L23.2289-28.7772L27.0341-25.8953Q28.5393-24.7765 29.8547-25.6998Q31.1701-26.623 30.6078-28.3217L29.0618-33.0273L32.9066-35.9038Q34.2814-36.932 33.8296-38.4067Q33.3778-39.8815 31.6506-39.8815L26.8547-39.8815L25.2747-44.9269Q24.8032-46.4727 23.2291-46.4584Q21.6549-46.4441 21.1549-44.9269L19.5749-39.8815L14.7111-39.8815Q13.0122-39.8815 12.5631-38.4067Q12.1141-36.932 13.4606-35.9038L17.3567-32.9988L15.8445-28.3217Q15.2594-26.623 16.558-25.7166Q17.8565-24.8102 19.3277-25.8953ZM19.3277 4.92892L23.2289 2.04696L27.0341 4.92892Q28.5393 6.04771 29.8547 5.12719Q31.1701 4.20667 30.6078 2.50254L29.0618-2.20314L32.9066-5.07958Q34.2814-6.10232 33.8296-7.58254Q33.3778-9.06277 31.6506-9.06277L26.8547-9.06277L25.2747-14.1027Q24.8032-15.6485 23.2291-15.6369Q21.6549-15.6254 21.1549-14.1027L19.5749-9.06277L14.7111-9.06277Q13.0122-9.06277 12.5631-7.58254Q12.1141-6.10232 13.4606-5.07958L17.3567-2.17459L15.8445 2.50254Q15.2594 4.20667 16.558 5.11031Q17.8565 6.01395 19.3277 4.92892Z"/>
  </g>
  <g id="Semibold-M" transform="matrix(1 0 0 1 1979.6 1126)">
   <path d="M48.5123-60.3676L109.707-60.3676Q111.866-60.3676 113.369-61.861Q114.871-63.3543 114.871-65.5246Q114.871-67.6767 113.378-69.1791Q111.885-70.6816 109.707-70.6816L48.5123-70.6816Q46.3525-70.6816 44.8501-69.1882Q43.3476-67.6948 43.3476-65.5246Q43.3476-63.3725 44.841-61.87Q46.3344-60.3676 48.5123-60.3676ZM48.5123-30.0337L109.707-30.0337Q111.866-30.0337 113.369-31.5309Q114.871-33.0281 114.871-35.1983Q114.871-37.3504 113.378-38.8567Q111.885-40.363 109.707-40.363L48.5123-40.363Q46.3525-40.363 44.8501-38.8658Q43.3476-37.3686 43.3476-35.1983Q43.3476-33.0463 44.841-31.54Q46.3344-30.0337 48.5123-30.0337ZM48.5123 0.284873L109.707 0.284873Q111.866 0.284873 113.369-1.2085Q114.871-2.70187 114.871-4.87211Q114.871-7.0242 113.378-8.52665Q111.885-10.0291 109.707-10.0291L48.5123-10.0291Q46.3525-10.0291 44.8501-8.53573Q43.3476-7.04236 43.3476-4.87211Q43.3476-2.72003 44.841-1.21758Q46.3344 0.284873 48.5123 0.284873ZM18.8938-56.6651L22.8985-59.6181L26.7968-56.6651Q28.1479-55.6541 29.3174-56.4676Q30.4869-57.2811 29.9829-58.8143L28.4038-63.6214L32.3355-66.582Q33.5727-67.4943 33.1751-68.7988Q32.7774-70.1033 31.2337-70.1033L26.3095-70.1033L24.7047-75.2584Q24.2811-76.6152 22.8893-76.61Q21.4976-76.6047 21.0559-75.2584L19.451-70.1033L14.4569-70.1033Q12.9497-70.1033 12.5558-68.7988Q12.162-67.4943 13.3627-66.582L17.3414-63.6032L15.8065-58.8143Q15.266-57.2811 16.4173-56.4858Q17.5685-55.6906 18.8938-56.6651ZM18.8938-26.383L22.8985-29.3437L26.7968-26.383Q28.1479-25.3643 29.3174-26.1855Q30.4869-27.0067 29.9829-28.5322L28.4038-33.3393L32.3355-36.2923Q33.5727-37.2122 33.1751-38.5129Q32.7774-39.8136 31.2337-39.8136L26.3095-39.8136L24.7047-44.9687Q24.2811-46.3331 22.8893-46.3241Q21.4976-46.315 21.0559-44.9687L19.451-39.8136L14.4569-39.8136Q12.9497-39.8136 12.5558-38.5129Q12.162-37.2122 13.3627-36.2923L17.3414-33.3211L15.8065-28.5322Q15.2737-27.0067 16.4211-26.2076Q17.5685-25.4085 18.8938-26.383ZM18.8938 3.98734L22.8985 1.0267L26.7968 3.98734Q28.1479 5.00604 29.3174 4.18869Q30.4869 3.37134 29.9829 1.83813L28.4038-2.96892L32.3355-5.92193Q33.5727-6.83417 33.1751-8.14252Q32.7774-9.45087 31.2337-9.45087L26.3095-9.45087L24.7047-14.5983Q24.2811-15.9628 22.8893-15.9575Q21.4976-15.9523 21.0559-14.5983L19.451-9.45087L14.4569-9.45087Q12.9497-9.45087 12.5558-8.14252Q12.162-6.83417 13.3627-5.92193L17.3414-2.95077L15.8065 1.83813Q15.2737 3.37134 16.4211 4.16662Q17.5685 4.96189 18.8938 3.98734Z"/>
  </g>
  <g id="Medium-M" transform="matrix(1 0 0 1 1683.77 1126)">
   <path d="M47.1841-60.553L108.483-60.553Q110.423-60.553 111.767-61.8922Q113.111-63.2315 113.111-65.1726Q113.111-67.1034 111.772-68.4478Q110.433-69.7922 108.483-69.7922L47.1841-69.7922Q45.244-69.7922 43.8996-68.4529Q42.5552-67.1137 42.5552-65.1726Q42.5552-63.2417 43.8945-61.8974Q45.2337-60.553 47.1841-60.553ZM47.1841-30.5695L108.483-30.5695Q110.423-30.5695 111.767-31.9134Q113.111-33.2572 113.111-35.1983Q113.111-37.1292 111.772-38.4782Q110.433-39.8272 108.483-39.8272L47.1841-39.8272Q45.244-39.8272 43.8996-38.4833Q42.5552-37.1394 42.5552-35.1983Q42.5552-33.2675 43.8945-31.9185Q45.2337-30.5695 47.1841-30.5695ZM47.1841-0.604497L108.483-0.604497Q110.423-0.604497 111.767-1.94375Q113.111-3.283 113.111-5.2241Q113.111-7.15493 111.772-8.49932Q110.433-9.84371 108.483-9.84371L47.1841-9.84371Q45.244-9.84371 43.8996-8.50446Q42.5552-7.16521 42.5552-5.2241Q42.5552-3.29327 43.8945-1.94889Q45.2337-0.604497 47.1841-0.604497ZM18.5648-56.6751L22.648-59.6861L26.6169-56.6751Q27.851-55.7415 28.9099-56.476Q29.9688-57.2105 29.509-58.6141L27.9049-63.498L31.9025-66.5183Q33.0353-67.3468 32.6788-68.5202Q32.3222-69.6936 30.9176-69.6936L25.8961-69.6936L24.2724-74.9318Q23.8852-76.1496 22.6318-76.149Q21.3783-76.1485 20.9808-74.9318L19.3571-69.6936L14.2641-69.6936Q12.9022-69.6936 12.5503-68.5202Q12.1984-67.3468 13.2884-66.5183L17.3298-63.4878L15.7777-58.6141Q15.2752-57.2105 16.3127-56.4974Q17.3502-55.7843 18.5648-56.6751ZM18.5648-26.7529L22.648-29.7732L26.6169-26.7529Q27.851-25.8101 28.9099-26.5538Q29.9688-27.2976 29.509-28.6919L27.9049-33.5758L31.9025-36.5869Q33.0353-37.4246 32.6788-38.5934Q32.3222-39.7622 30.9176-39.7622L25.8961-39.7622L24.2724-45.0004Q23.8852-46.2274 22.6318-46.2222Q21.3783-46.2171 20.9808-45.0004L19.3571-39.7622L14.2641-39.7622Q12.9022-39.7622 12.5503-38.5934Q12.1984-37.4246 13.2884-36.5869L17.3298-33.5656L15.7777-28.6919Q15.2844-27.2976 16.3173-26.5798Q17.3502-25.8621 18.5648-26.7529ZM18.5648 3.2734L22.648 0.253098L26.6169 3.2734Q27.851 4.2162 28.9099 3.47708Q29.9688 2.73796 29.509 1.33435L27.9049-3.54957L31.9025-6.56063Q33.0353-7.3891 32.6788-8.56712Q32.3222-9.74514 30.9176-9.74514L25.8961-9.74514L24.2724-14.9741Q23.8852-16.2011 22.6318-16.2006Q21.3783-16.2001 20.9808-14.9741L19.3571-9.74514L14.2641-9.74514Q12.9022-9.74514 12.5503-8.56712Q12.1984-7.3891 13.2884-6.56063L17.3298-3.53929L15.7777 1.33435Q15.2844 2.73796 16.3173 3.45107Q17.3502 4.16418 18.5648 3.2734Z"/>
  </g>
  <g id="Regular-M" transform="matrix(1 0 0 1 1388.21 1126)">
   <path d="M45.4517-60.7948L106.886-60.7948Q108.539-60.7948 109.678-61.933Q110.816-63.0712 110.816-64.7135Q110.816-66.3557 109.678-67.4939Q108.539-68.6321 106.886-68.6321L45.4517-68.6321Q43.7981-68.6321 42.6599-67.4939Q41.5217-66.3557 41.5217-64.7135Q41.5217-63.0712 42.6599-61.933Q43.7981-60.7948 45.4517-60.7948ZM45.4517-31.2683L106.886-31.2683Q108.539-31.2683 109.678-32.4122Q110.816-33.5561 110.816-35.1983Q110.816-36.8406 109.678-37.9845Q108.539-39.1284 106.886-39.1284L45.4517-39.1284Q43.7981-39.1284 42.6599-37.9845Q41.5217-36.8406 41.5217-35.1983Q41.5217-33.5561 42.6599-32.4122Q43.7981-31.2683 45.4517-31.2683ZM45.4517-1.76455L106.886-1.76455Q108.539-1.76455 109.678-2.90277Q110.816-4.04098 110.816-5.68322Q110.816-7.32545 109.678-8.46367Q108.539-9.60189 106.886-9.60189L45.4517-9.60189Q43.7981-9.60189 42.6599-8.46367Q41.5217-7.32545 41.5217-5.68322Q41.5217-4.04098 42.6599-2.90277Q43.7981-1.76455 45.4517-1.76455ZM18.1357-56.6881L22.3212-59.7748L26.3822-56.6881Q27.4639-55.8556 28.3785-56.487Q29.293-57.1184 28.8909-58.353L27.2541-63.3372L31.3377-66.4353Q32.3344-67.1545 32.0315-68.1569Q31.7285-69.1592 30.5053-69.1592L25.3569-69.1592L23.7087-74.5059Q23.3689-75.5422 22.2958-75.5479Q21.2226-75.5535 20.8828-74.5059L19.2347-69.1592L14.0126-69.1592Q12.8403-69.1592 12.543-68.1569Q12.2458-67.1545 13.1915-66.4353L17.3147-63.3372L15.7402-58.353Q15.2872-57.1184 16.1762-56.5125Q17.0653-55.9066 18.1357-56.6881ZM18.1357-27.2353L22.3212-30.3334L26.3822-27.2353Q27.4639-26.3914 28.3785-27.0342Q29.293-27.677 28.8909-28.9002L27.2541-33.8844L31.3377-36.9711Q32.3344-37.7017 32.0315-38.6984Q31.7285-39.6951 30.5053-39.6951L25.3569-39.6951L23.7087-45.0417Q23.3689-46.0894 22.2958-46.0894Q21.2226-46.0894 20.8828-45.0417L19.2347-39.6951L14.0126-39.6951Q12.8403-39.6951 12.543-38.6984Q12.2458-37.7017 13.1915-36.9711L17.3147-33.8844L15.7402-28.9002Q15.2985-27.677 16.1819-27.0654Q17.0653-26.4537 18.1357-27.2353ZM18.1357 2.34217L22.3212-0.755948L26.3822 2.34217Q27.4639 3.18598 28.3785 2.54889Q29.293 1.91181 28.8909 0.677248L27.2541-4.30694L31.3377-7.39371Q32.3344-8.11291 32.0315-9.12094Q31.7285-10.129 30.5053-10.129L25.3569-10.129L23.7087-15.4643Q23.3689-16.5119 22.2958-16.5176Q21.2226-16.5233 20.8828-15.4643L19.2347-10.129L14.0126-10.129Q12.8403-10.129 12.543-9.12094Q12.2458-8.11291 13.1915-7.39371L17.3147-4.30694L15.7402 0.677248Q15.2985 1.91181 16.1819 2.51774Q17.0653 3.12368 18.1357 2.34217Z"/>
  </g>
  <g id="Light-M" transform="matrix(1 0 0 1 1092.32 1126)">
   <path d="M42.8758-61.3836L106.131-61.3836Q107.435-61.3836 108.298-62.2458Q109.16-63.108 109.16-64.3823Q109.16-65.6565 108.298-66.5188Q107.435-67.381 106.131-67.381L42.8758-67.381Q41.5718-67.381 40.7096-66.5188Q39.8474-65.6565 39.8474-64.3823Q39.8474-63.108 40.7096-62.2458Q41.5718-61.3836 42.8758-61.3836ZM42.8758-32.1699L106.131-32.1699Q107.435-32.1699 108.298-33.047Q109.16-33.9241 109.16-35.1983Q109.16-36.4726 108.298-37.3497Q107.435-38.2268 106.131-38.2268L42.8758-38.2268Q41.5718-38.2268 40.7096-37.3497Q39.8474-36.4726 39.8474-35.1983Q39.8474-33.9241 40.7096-33.047Q41.5718-32.1699 42.8758-32.1699ZM42.8758-3.01568L106.131-3.01568Q107.435-3.01568 108.298-3.87791Q109.16-4.74015 109.16-6.0144Q109.16-7.28866 108.298-8.15089Q107.435-9.01312 106.131-9.01312L42.8758-9.01312Q41.5718-9.01312 40.7096-8.15089Q39.8474-7.28866 39.8474-6.0144Q39.8474-4.74015 40.7096-3.87791Q41.5718-3.01568 42.8758-3.01568ZM17.4365-56.9825L21.4381-59.922L25.3151-56.9825Q26.2312-56.3156 26.9617-56.809Q27.6923-57.3024 27.3454-58.3162L25.7822-63.098L29.7186-66.0673Q30.5129-66.6393 30.2744-67.4485Q30.0358-68.2577 29.0518-68.2577L24.1425-68.2577L22.5495-73.3835Q22.265-74.1807 21.4218-74.1955Q20.5787-74.2104 20.2941-73.3835L18.7011-68.2577L13.6998-68.2577Q12.7483-68.2577 12.5247-67.4485Q12.301-66.6393 13.0627-66.0673L17.002-63.098L15.501-58.3162Q15.1216-57.3024 15.8359-56.8253Q16.5502-56.3481 17.4365-56.9825ZM17.4365-27.8608L21.4381-30.8301L25.3151-27.8608Q26.2312-27.1642 26.9617-27.6874Q27.6923-28.2105 27.3454-29.1946L25.7822-33.9764L29.7186-36.9159Q30.5129-37.5177 30.2744-38.312Q30.0358-39.1063 29.0518-39.1063L24.1425-39.1063L22.5495-44.2322Q22.265-45.059 21.4218-45.059Q20.5787-45.059 20.2941-44.2322L18.7011-39.1063L13.6998-39.1063Q12.7483-39.1063 12.5247-38.312Q12.301-37.5177 13.0627-36.9159L17.002-33.9764L15.501-29.1946Q15.1513-28.2105 15.8507-27.7185Q16.5502-27.2265 17.4365-27.8608ZM17.4365 1.38543L21.4381-1.5839L25.3151 1.38543Q26.2312 2.08204 26.9617 1.57375Q27.6923 1.06545 27.3454 0.0516823L25.7822-4.73011L29.7186-7.6697Q30.5129-8.24171 30.2744-9.06575Q30.0358-9.88979 29.0518-9.88979L24.1425-9.88979L22.5495-14.9859Q22.265-15.8128 21.4218-15.8277Q20.5787-15.8425 20.2941-14.9859L18.7011-9.88979L13.6998-9.88979Q12.7483-9.88979 12.5247-9.06575Q12.301-8.24171 13.0627-7.6697L17.002-4.73011L15.501 0.0516823Q15.1513 1.06545 15.8507 1.5426Q16.5502 2.01974 17.4365 1.38543Z"/>
  </g>
  <g id="Thin-M" transform="matrix(1 0 0 1 796.707 1126)">
   <path d="M39.4691-62.1622L105.134-62.1622Q105.975-62.1622 106.473-62.6595Q106.97-63.1567 106.97-63.9443Q106.97-64.7318 106.473-65.2291Q105.975-65.7263 105.134-65.7263L39.4691-65.7263Q38.6274-65.7263 38.1302-65.2291Q37.633-64.7318 37.633-63.9443Q37.633-63.1567 38.1302-62.6595Q38.6274-62.1622 39.4691-62.1622ZM39.4691-33.3622L105.134-33.3622Q105.975-33.3622 106.473-33.8865Q106.97-34.4108 106.97-35.1983Q106.97-35.9859 106.473-36.5102Q105.975-37.0344 105.134-37.0344L39.4691-37.0344Q38.6274-37.0344 38.1302-36.5102Q37.633-35.9859 37.633-35.1983Q37.633-34.4108 38.1302-33.8865Q38.6274-33.3622 39.4691-33.3622ZM39.4691-4.6704L105.134-4.6704Q105.975-4.6704 106.473-5.16762Q106.97-5.66484 106.97-6.45242Q106.97-7.23999 106.473-7.73721Q105.975-8.23443 105.134-8.23443L39.4691-8.23443Q38.6274-8.23443 38.1302-7.73721Q37.633-7.23999 37.633-6.45242Q37.633-5.66484 38.1302-5.16762Q38.6274-4.6704 39.4691-4.6704ZM16.5118-57.3718L20.2701-60.1167L23.9037-57.3718Q24.6008-56.9239 25.088-57.2348Q25.5753-57.5458 25.3014-58.2675L23.8354-62.7816L27.5772-65.5806Q28.1038-65.958 27.9504-66.5116Q27.797-67.0653 27.1294-67.0653L22.5365-67.0653L21.0165-71.8992Q20.8049-72.3799 20.2659-72.407Q19.727-72.434 19.5154-71.8992L17.9954-67.0653L13.2861-67.0653Q12.6267-67.0653 12.5003-66.5116Q12.374-65.958 12.8923-65.5806L16.5883-62.7816L15.1847-58.2675Q14.9026-57.5458 15.3857-57.239Q15.8688-56.9322 16.5118-57.3718ZM16.5118-28.6882L20.2701-31.4872L23.9037-28.6882Q24.6008-28.1862 25.088-28.5512Q25.5753-28.9162 25.3014-29.5839L23.8354-34.098L27.5772-36.8429Q28.1038-37.2744 27.9504-37.801Q27.797-38.3276 27.1294-38.3276L22.5365-38.3276L21.0165-43.1615Q20.8049-43.6963 20.2659-43.6963Q19.727-43.6963 19.5154-43.1615L17.9954-38.3276L13.2861-38.3276Q12.6267-38.3276 12.5003-37.801Q12.374-37.2744 12.8923-36.8429L16.5883-34.098L15.1847-29.5839Q14.9566-28.9162 15.4127-28.5824Q15.8688-28.2485 16.5118-28.6882ZM16.5118 0.120049L20.2701-2.67894L23.9037 0.120049Q24.6008 0.621992 25.088 0.284037Q25.5753-0.0539178 25.3014-0.775679L23.8354-5.2898L27.5772-8.03471Q28.1038-8.41205 27.9504-8.99275Q27.797-9.57344 27.1294-9.57344L22.5365-9.57344L21.0165-14.3532Q20.8049-14.8881 20.2659-14.9151Q19.727-14.9422 19.5154-14.3532L17.9954-9.57344L13.2861-9.57344Q12.6267-9.57344 12.5003-8.99275Q12.374-8.41205 12.8923-8.03471L16.5883-5.2898L15.1847-0.775679Q14.9566-0.0539178 15.4127 0.252885Q15.8688 0.559687 16.5118 0.120049Z"/>
  </g>
  <g id="Ultralight-M" transform="matrix(1 0 0 1 500.557 1126)">
   <path d="M37.7241-62.5611L104.623-62.5611Q105.228-62.5611 105.538-62.8714Q105.848-63.1816 105.848-63.7199Q105.848-64.2582 105.538-64.5685Q105.228-64.8787 104.623-64.8787L37.7241-64.8787Q37.1193-64.8787 36.809-64.5685Q36.4988-64.2582 36.4988-63.7199Q36.4988-63.1816 36.809-62.8714Q37.1193-62.5611 37.7241-62.5611ZM37.7241-33.973L104.623-33.973Q105.228-33.973 105.538-34.3165Q105.848-34.66 105.848-35.1983Q105.848-35.7366 105.538-36.0802Q105.228-36.4237 104.623-36.4237L37.7241-36.4237Q37.1193-36.4237 36.809-36.0802Q36.4988-35.7366 36.4988-35.1983Q36.4988-34.66 36.809-34.3165Q37.1193-33.973 37.7241-33.973ZM37.7241-5.51794L104.623-5.51794Q105.228-5.51794 105.538-5.82821Q105.848-6.13847 105.848-6.67677Q105.848-7.21506 105.538-7.52532Q105.228-7.83559 104.623-7.83559L37.7241-7.83559Q37.1193-7.83559 36.809-7.52532Q36.4988-7.21506 36.4988-6.67677Q36.4988-6.13847 36.809-5.82821Q37.1193-5.51794 37.7241-5.51794ZM16.0382-57.5712L19.6718-60.2164L23.1808-57.5712Q23.7657-57.2355 24.1283-57.453Q24.4909-57.6704 24.2544-58.2426L22.8383-62.6196L26.4804-65.3314Q26.8699-65.609 26.7602-66.0318Q26.6504-66.4546 26.1447-66.4546L21.7139-66.4546L20.2313-71.1389Q20.0571-71.4576 19.6739-71.4909Q19.2907-71.5242 19.1165-71.1389L17.6339-66.4546L13.0742-66.4546Q12.5644-66.4546 12.4879-66.0318Q12.4113-65.609 12.8051-65.3314L16.3764-62.6196L15.0226-58.2426Q14.7904-57.6704 15.1551-57.4508Q15.5198-57.2313 16.0382-57.5712ZM16.0382-29.1119L19.6718-31.8237L23.1808-29.1119Q23.7657-28.7097 24.1283-28.9937Q24.4909-29.2777 24.2544-29.7833L22.8383-34.1603L26.4804-36.8055Q26.8699-37.1497 26.7602-37.5392Q26.6504-37.9288 26.1447-37.9288L21.7139-37.9288L20.2313-42.6131Q20.0571-42.9983 19.6739-42.9983Q19.2907-42.9983 19.1165-42.6131L17.6339-37.9288L13.0742-37.9288Q12.5644-37.9288 12.4879-37.5392Q12.4113-37.1497 12.8051-36.8055L16.3764-34.1603L15.0226-29.7833Q14.8569-29.2777 15.1884-29.0248Q15.5198-28.772 16.0382-29.1119ZM16.0382-0.528071L19.6718-3.23981L23.1808-0.528071Q23.7657-0.125839 24.1283-0.376547Q24.4909-0.627254 24.2544-1.19945L22.8383-5.57647L26.4804-8.22167Q26.8699-8.49929 26.7602-8.95535Q26.6504-9.41141 26.1447-9.41141L21.7139-9.41141L20.2313-14.0292Q20.0571-14.4145 19.6739-14.4477Q19.2907-14.481 19.1165-14.0292L17.6339-9.41141L13.0742-9.41141Q12.5644-9.41141 12.4879-8.95535Q12.4113-8.49929 12.8051-8.22167L16.3764-5.57647L15.0226-1.19945Q14.8569-0.627254 15.1884-0.407699Q15.5198-0.188144 16.0382-0.528071Z"/>
  </g>
  <g id="Black-S" transform="matrix(1 0 0 1 2879.69 696)">
   <path d="M43.7012-54.1504L91.3086-54.1504Q93.9453-54.1504 95.8008-55.9814Q97.6562-57.8125 97.6562-60.498Q97.6562-63.1348 95.8252-64.9902Q93.9941-66.8457 91.3086-66.8457L43.7012-66.8457Q41.0645-66.8457 39.209-65.0146Q37.3535-63.1836 37.3535-60.498Q37.3535-57.8613 39.1846-56.0059Q41.0156-54.1504 43.7012-54.1504ZM43.7012-28.8574L91.3086-28.8574Q93.9453-28.8574 95.8008-30.6885Q97.6562-32.5195 97.6562-35.2051Q97.6562-37.8418 95.8252-39.6973Q93.9941-41.5527 91.3086-41.5527L43.7012-41.5527Q41.0645-41.5527 39.209-39.7217Q37.3535-37.8906 37.3535-35.2051Q37.3535-32.5684 39.1846-30.7129Q41.0156-28.8574 43.7012-28.8574ZM43.7012-3.56445L91.3086-3.56445Q93.9453-3.56445 95.8008-5.39551Q97.6562-7.22656 97.6562-9.91211Q97.6562-12.5488 95.8252-14.4043Q93.9941-16.2598 91.3086-16.2598L43.7012-16.2598Q41.0645-16.2598 39.209-14.4287Q37.3535-12.5977 37.3535-9.91211Q37.3535-7.27539 39.1846-5.41992Q41.0156-3.56445 43.7012-3.56445ZM16.2109-52.002L18.9941-54.0527L21.7285-52.002Q23.291-50.8789 24.6826-51.8555Q26.0742-52.832 25.4883-54.5898L24.3652-58.0078L27.1484-60.0586Q28.5645-61.1328 28.0762-62.7197Q27.5879-64.3066 25.7812-64.3066L22.3633-64.3066L21.1914-67.9688Q20.7031-69.6289 19.0186-69.6045Q17.334-69.5801 16.7969-67.9688L15.625-64.3066L12.1582-64.3066Q10.3516-64.3066 9.86328-62.7197Q9.375-61.1328 10.791-60.0586L13.623-57.959L12.5-54.5898Q11.9141-52.832 13.3057-51.8555Q14.6973-50.8789 16.2109-52.002ZM16.2109-26.709L18.9941-28.7598L21.7285-26.709Q23.291-25.5859 24.6826-26.5625Q26.0742-27.5391 25.4883-29.2969L24.3652-32.7148L27.1484-34.7656Q28.5645-35.8398 28.0762-37.4268Q27.5879-39.0137 25.7812-39.0137L22.3633-39.0137L21.1914-42.6758Q20.7031-44.3359 19.0186-44.3115Q17.334-44.2871 16.7969-42.6758L15.625-39.0137L12.1582-39.0137Q10.3516-39.0137 9.86328-37.4268Q9.375-35.8398 10.791-34.7656L13.623-32.666L12.5-29.2969Q11.9141-27.5391 13.3057-26.5625Q14.6973-25.5859 16.2109-26.709ZM16.2109-1.41602L18.9941-3.4668L21.7285-1.41602Q23.291-0.292969 24.6826-1.26953Q26.0742-2.24609 25.4883-4.00391L24.3652-7.42188L27.1484-9.47266Q28.5645-10.5469 28.0762-12.1338Q27.5879-13.7207 25.7812-13.7207L22.3633-13.7207L21.1914-17.3828Q20.7031-19.043 19.0186-19.0186Q17.334-18.9941 16.7969-17.3828L15.625-13.7207L12.1582-13.7207Q10.3516-13.7207 9.86328-12.1338Q9.375-10.5469 10.791-9.47266L13.623-7.37305L12.5-4.00391Q11.9141-2.24609 13.3057-1.26953Q14.6973-0.292969 16.2109-1.41602Z"/>
  </g>
  <g id="Heavy-S" transform="matrix(1 0 0 1 2584.16 696)">
   <path d="M42.0877-54.3463L89.6145-54.3463Q91.9746-54.3463 93.6342-55.9872Q95.2937-57.6281 95.2937-60.0255Q95.2937-62.3857 93.6528-64.0452Q92.0119-65.7048 89.6145-65.7048L42.0877-65.7048Q39.7276-65.7048 38.0681-64.0639Q36.4085-62.423 36.4085-60.0255Q36.4085-57.6654 38.0494-56.0059Q39.6903-54.3463 42.0877-54.3463ZM42.0877-29.5258L89.6145-29.5258Q91.9746-29.5258 93.6342-31.1667Q95.2937-32.8076 95.2937-35.2051Q95.2937-37.5652 93.6528-39.2248Q92.0119-40.8843 89.6145-40.8843L42.0877-40.8843Q39.7276-40.8843 38.0681-39.2434Q36.4085-37.6025 36.4085-35.2051Q36.4085-32.8449 38.0494-31.1854Q39.6903-29.5258 42.0877-29.5258ZM42.0877-4.70538L89.6145-4.70538Q91.9746-4.70538 93.6342-6.34628Q95.2937-7.98718 95.2937-10.3846Q95.2937-12.7447 93.6528-14.4043Q92.0119-16.0638 89.6145-16.0638L42.0877-16.0638Q39.7276-16.0638 38.0681-14.4229Q36.4085-12.782 36.4085-10.3846Q36.4085-8.02448 38.0494-6.36493Q39.6903-4.70538 42.0877-4.70538ZM15.8191-51.9789L18.7406-54.1334L21.6017-51.9789Q23.0144-50.9481 24.2677-51.8267Q25.521-52.7053 24.9927-54.3017L23.8236-57.858L26.722-60.0125Q28.0113-60.983 27.5749-62.4028Q27.1384-63.8226 25.5047-63.8226L21.9138-63.8226L20.7074-67.6345Q20.2652-69.1218 18.7535-69.1032Q17.2418-69.0845 16.7623-67.6345L15.5559-63.8226L11.9162-63.8226Q10.2939-63.8226 9.85752-62.4028Q9.4211-60.983 10.6988-60.0125L13.6461-57.8207L12.4885-54.3017Q11.9486-52.7053 13.1962-51.8324Q14.4437-50.9596 15.8191-51.9789ZM15.8191-27.17L18.7406-29.3245L21.6017-27.17Q23.0144-26.1391 24.2677-27.0177Q25.521-27.8963 24.9927-29.4928L23.8236-33.0491L26.722-35.2036Q28.0113-36.1741 27.5749-37.5939Q27.1384-39.0137 25.5047-39.0137L21.9138-39.0137L20.7074-42.8256Q20.2652-44.3129 18.7535-44.2942Q17.2418-44.2756 16.7623-42.8256L15.5559-39.0137L11.9162-39.0137Q10.2939-39.0137 9.85752-37.5939Q9.4211-36.1741 10.6988-35.2036L13.6461-33.0117L12.4885-29.4928Q11.9486-27.8963 13.1962-27.0235Q14.4437-26.1506 15.8191-27.17ZM15.8191-2.33797L18.7406-4.49247L21.6017-2.33797Q23.0144-1.30712 24.2677-2.18573Q25.521-3.06433 24.9927-4.6608L23.8236-8.21706L26.722-10.3716Q28.0113-11.3421 27.5749-12.7619Q27.1384-14.1817 25.5047-14.1817L21.9138-14.1817L20.7074-17.9936Q20.2652-19.4809 18.7535-19.4622Q17.2418-19.4436 16.7623-17.9936L15.5559-14.1817L11.9162-14.1817Q10.2939-14.1817 9.85752-12.7619Q9.4211-11.3421 10.6988-10.3716L13.6461-8.17976L12.4885-4.6608Q11.9486-3.06433 13.1962-2.19149Q14.4437-1.31865 15.8191-2.33797Z"/>
  </g>
  <g id="Bold-S" transform="matrix(1 0 0 1 2288.77 696)">
   <path d="M40.2832-54.5654L87.7197-54.5654Q89.7705-54.5654 91.2109-55.9937Q92.6514-57.4219 92.6514-59.4971Q92.6514-61.5479 91.2231-62.9883Q89.7949-64.4287 87.7197-64.4287L40.2832-64.4287Q38.2324-64.4287 36.792-63.0005Q35.3516-61.5723 35.3516-59.4971Q35.3516-57.4463 36.7798-56.0059Q38.208-54.5654 40.2832-54.5654ZM40.2832-30.2734L87.7197-30.2734Q89.7705-30.2734 91.2109-31.7017Q92.6514-33.1299 92.6514-35.2051Q92.6514-37.2559 91.2231-38.6963Q89.7949-40.1367 87.7197-40.1367L40.2832-40.1367Q38.2324-40.1367 36.792-38.7085Q35.3516-37.2803 35.3516-35.2051Q35.3516-33.1543 36.7798-31.7139Q38.208-30.2734 40.2832-30.2734ZM40.2832-5.98145L87.7197-5.98145Q89.7705-5.98145 91.2109-7.40967Q92.6514-8.83789 92.6514-10.9131Q92.6514-12.9639 91.2231-14.4043Q89.7949-15.8447 87.7197-15.8447L40.2832-15.8447Q38.2324-15.8447 36.792-14.4165Q35.3516-12.9883 35.3516-10.9131Q35.3516-8.8623 36.7798-7.42188Q38.208-5.98145 40.2832-5.98145ZM15.3809-51.9531L18.457-54.2236L21.46-51.9531Q22.7051-51.0254 23.8037-51.7944Q24.9023-52.5635 24.4385-53.9795L23.2178-57.6904L26.2451-59.9609Q27.3926-60.8154 27.0142-62.0483Q26.6357-63.2812 25.1953-63.2812L21.4111-63.2812L20.166-67.2607Q19.7754-68.5547 18.457-68.5425Q17.1387-68.5303 16.7236-67.2607L15.4785-63.2812L11.6455-63.2812Q10.2295-63.2812 9.85107-62.0483Q9.47266-60.8154 10.5957-59.9609L13.6719-57.666L12.4756-53.9795Q11.9873-52.5635 13.0737-51.8066Q14.1602-51.0498 15.3809-51.9531ZM15.3809-27.6855L18.457-29.9561L21.46-27.6855Q22.7051-26.7578 23.8037-27.5269Q24.9023-28.2959 24.4385-29.7119L23.2178-33.4229L26.2451-35.6934Q27.3926-36.5479 27.0142-37.7808Q26.6357-39.0137 25.1953-39.0137L21.4111-39.0137L20.166-42.9932Q19.7754-44.2871 18.457-44.2749Q17.1387-44.2627 16.7236-42.9932L15.4785-39.0137L11.6455-39.0137Q10.2295-39.0137 9.85107-37.7808Q9.47266-36.5479 10.5957-35.6934L13.6719-33.3984L12.4756-29.7119Q11.9873-28.2959 13.0737-27.5391Q14.1602-26.7822 15.3809-27.6855ZM15.3809-3.36914L18.457-5.63965L21.46-3.36914Q22.7051-2.44141 23.8037-3.21045Q24.9023-3.97949 24.4385-5.39551L23.2178-9.10645L26.2451-11.377Q27.3926-12.2314 27.0142-13.4644Q26.6357-14.6973 25.1953-14.6973L21.4111-14.6973L20.166-18.6768Q19.7754-19.9707 18.457-19.9585Q17.1387-19.9463 16.7236-18.6768L15.4785-14.6973L11.6455-14.6973Q10.2295-14.6973 9.85107-13.4644Q9.47266-12.2314 10.5957-11.377L13.6719-9.08203L12.4756-5.39551Q11.9873-3.97949 13.0737-3.22266Q14.1602-2.46582 15.3809-3.36914Z"/>
  </g>
  <g id="Semibold-S" transform="matrix(1 0 0 1 1992.97 696)">
   <path d="M39.0391-54.7165L86.4134-54.7165Q88.2509-54.7165 89.5402-55.9981Q90.8296-57.2797 90.8296-59.1327Q90.8296-60.9702 89.548-62.2596Q88.2664-63.5489 86.4134-63.5489L39.0391-63.5489Q37.2016-63.5489 35.9122-62.2673Q34.6229-60.9857 34.6229-59.1327Q34.6229-57.2952 35.9044-56.0059Q37.186-54.7165 39.0391-54.7165ZM39.0391-30.7889L86.4134-30.7889Q88.2509-30.7889 89.5402-32.0705Q90.8296-33.3521 90.8296-35.2051Q90.8296-37.0426 89.548-38.3319Q88.2664-39.6213 86.4134-39.6213L39.0391-39.6213Q37.2016-39.6213 35.9122-38.3397Q34.6229-37.0581 34.6229-35.2051Q34.6229-33.3676 35.9044-32.0782Q37.186-30.7889 39.0391-30.7889ZM39.0391-6.86123L86.4134-6.86123Q88.2509-6.86123 89.5402-8.14282Q90.8296-9.42441 90.8296-11.2774Q90.8296-13.1149 89.548-14.4043Q88.2664-15.6937 86.4134-15.6937L39.0391-15.6937Q37.2016-15.6937 35.9122-14.4121Q34.6229-13.1305 34.6229-11.2774Q34.6229-9.43994 35.9044-8.15059Q37.186-6.86123 39.0391-6.86123ZM15.0787-51.9354L18.2615-54.2858L21.3622-51.9354Q22.4918-51.0787 23.4838-51.7722Q24.4758-52.4657 24.0563-53.7573L22.8001-57.5749L25.9163-59.9254Q26.966-60.6999 26.6276-61.804Q26.2892-62.908 24.982-62.908L21.0646-62.908L19.7928-67.003Q19.4377-68.1637 18.2526-68.1559Q17.0676-68.1481 16.697-67.003L15.4252-62.908L11.4589-62.908Q10.1851-62.908 9.84663-61.804Q9.5082-60.6999 10.5246-59.9254L13.6896-57.5594L12.4667-53.7573Q12.014-52.4657 12.9893-51.7889Q13.9646-51.112 15.0787-51.9354ZM15.0787-28.041L18.2615-30.3915L21.3622-28.041Q22.4918-27.1844 23.4838-27.8779Q24.4758-28.5714 24.0563-29.863L22.8001-33.6806L25.9163-36.0311Q26.966-36.8056 26.6276-37.9096Q26.2892-39.0137 24.982-39.0137L21.0646-39.0137L19.7928-43.1087Q19.4377-44.2693 18.2526-44.2616Q17.0676-44.2538 16.697-43.1087L15.4252-39.0137L11.4589-39.0137Q10.1851-39.0137 9.84663-37.9096Q9.5082-36.8056 10.5246-36.0311L13.6896-33.665L12.4667-29.863Q12.014-28.5714 12.9893-27.8945Q13.9646-27.2177 15.0787-28.041ZM15.0787-4.08008L18.2615-6.43057L21.3622-4.08008Q22.4918-3.22344 23.4838-3.91694Q24.4758-4.61045 24.0563-5.90205L22.8001-9.71963L25.9163-12.0701Q26.966-12.8446 26.6276-13.9487Q26.2892-15.0527 24.982-15.0527L21.0646-15.0527L19.7928-19.1478Q19.4377-20.3084 18.2526-20.3006Q17.0676-20.2929 16.697-19.1478L15.4252-15.0527L11.4589-15.0527Q10.1851-15.0527 9.84663-13.9487Q9.5082-12.8446 10.5246-12.0701L13.6896-9.7041L12.4667-5.90205Q12.014-4.61045 12.9893-3.93359Q13.9646-3.25674 15.0787-4.08008Z"/>
  </g>
  <g id="Medium-S" transform="matrix(1 0 0 1 1696.95 696)">
   <path d="M38.0957-54.8311L85.4229-54.8311Q87.0986-54.8311 88.2734-56.0015Q89.4482-57.1719 89.4482-58.8564Q89.4482-60.5322 88.2778-61.707Q87.1074-62.8818 85.4229-62.8818L38.0957-62.8818Q36.4199-62.8818 35.2451-61.7114Q34.0703-60.541 34.0703-58.8564Q34.0703-57.1807 35.2407-56.0059Q36.4111-54.8311 38.0957-54.8311ZM38.0957-31.1797L85.4229-31.1797Q87.0986-31.1797 88.2734-32.3501Q89.4482-33.5205 89.4482-35.2051Q89.4482-36.8809 88.2778-38.0557Q87.1074-39.2305 85.4229-39.2305L38.0957-39.2305Q36.4199-39.2305 35.2451-38.0601Q34.0703-36.8896 34.0703-35.2051Q34.0703-33.5293 35.2407-32.3545Q36.4111-31.1797 38.0957-31.1797ZM38.0957-7.52832L85.4229-7.52832Q87.0986-7.52832 88.2734-8.69873Q89.4482-9.86914 89.4482-11.5537Q89.4482-13.2295 88.2778-14.4043Q87.1074-15.5791 85.4229-15.5791L38.0957-15.5791Q36.4199-15.5791 35.2451-14.4087Q34.0703-13.2383 34.0703-11.5537Q34.0703-9.87793 35.2407-8.70312Q36.4111-7.52832 38.0957-7.52832ZM14.8496-51.9219L18.1133-54.333L21.2881-51.9219Q22.3301-51.1191 23.2412-51.7554Q24.1523-52.3916 23.7666-53.5889L22.4834-57.4873L25.667-59.8984Q26.6426-60.6123 26.3345-61.6187Q26.0264-62.625 24.8203-62.625L20.8018-62.625L19.5098-66.8076Q19.1816-67.8672 18.0977-67.8628Q17.0137-67.8584 16.6768-66.8076L15.3848-62.625L11.3174-62.625Q10.1514-62.625 9.84326-61.6187Q9.53516-60.6123 10.4707-59.8984L13.7031-57.4785L12.46-53.5889Q12.0342-52.3916 12.9253-51.7754Q13.8164-51.1592 14.8496-51.9219ZM14.8496-28.3105L18.1133-30.7217L21.2881-28.3105Q22.3301-27.5078 23.2412-28.144Q24.1523-28.7803 23.7666-29.9775L22.4834-33.876L25.667-36.2871Q26.6426-37.001 26.3345-38.0073Q26.0264-39.0137 24.8203-39.0137L20.8018-39.0137L19.5098-43.1963Q19.1816-44.2559 18.0977-44.2515Q17.0137-44.2471 16.6768-43.1963L15.3848-39.0137L11.3174-39.0137Q10.1514-39.0137 9.84326-38.0073Q9.53516-37.001 10.4707-36.2871L13.7031-33.8672L12.46-29.9775Q12.0342-28.7803 12.9253-28.1641Q13.8164-27.5479 14.8496-28.3105ZM14.8496-4.61914L18.1133-7.03027L21.2881-4.61914Q22.3301-3.81641 23.2412-4.45264Q24.1523-5.08887 23.7666-6.28613L22.4834-10.1846L25.667-12.5957Q26.6426-13.3096 26.3345-14.3159Q26.0264-15.3223 24.8203-15.3223L20.8018-15.3223L19.5098-19.5049Q19.1816-20.5645 18.0977-20.5601Q17.0137-20.5557 16.6768-19.5049L15.3848-15.3223L11.3174-15.3223Q10.1514-15.3223 9.84326-14.3159Q9.53516-13.3096 10.4707-12.5957L13.7031-10.1758L12.46-6.28613Q12.0342-5.08887 12.9253-4.47266Q13.8164-3.85645 14.8496-4.61914Z"/>
  </g>
  <g id="Regular-S" transform="matrix(1 0 0 1 1401.14 696)">
   <path d="M36.8652-54.9805L84.1309-54.9805Q85.5957-54.9805 86.6211-56.0059Q87.6465-57.0312 87.6465-58.4961Q87.6465-59.9609 86.6211-60.9863Q85.5957-62.0117 84.1309-62.0117L36.8652-62.0117Q35.4004-62.0117 34.375-60.9863Q33.3496-59.9609 33.3496-58.4961Q33.3496-57.0312 34.375-56.0059Q35.4004-54.9805 36.8652-54.9805ZM36.8652-31.6895L84.1309-31.6895Q85.5957-31.6895 86.6211-32.7148Q87.6465-33.7402 87.6465-35.2051Q87.6465-36.6699 86.6211-37.6953Q85.5957-38.7207 84.1309-38.7207L36.8652-38.7207Q35.4004-38.7207 34.375-37.6953Q33.3496-36.6699 33.3496-35.2051Q33.3496-33.7402 34.375-32.7148Q35.4004-31.6895 36.8652-31.6895ZM36.8652-8.39844L84.1309-8.39844Q85.5957-8.39844 86.6211-9.42383Q87.6465-10.4492 87.6465-11.9141Q87.6465-13.3789 86.6211-14.4043Q85.5957-15.4297 84.1309-15.4297L36.8652-15.4297Q35.4004-15.4297 34.375-14.4043Q33.3496-13.3789 33.3496-11.9141Q33.3496-10.4492 34.375-9.42383Q35.4004-8.39844 36.8652-8.39844ZM14.5508-51.9043L17.9199-54.3945L21.1914-51.9043Q22.1191-51.1719 22.9248-51.7334Q23.7305-52.2949 23.3887-53.3691L22.0703-57.373L25.3418-59.8633Q26.2207-60.498 25.9521-61.377Q25.6836-62.2559 24.6094-62.2559L20.459-62.2559L19.1406-66.5527Q18.8477-67.4805 17.8955-67.4805Q16.9434-67.4805 16.6504-66.5527L15.332-62.2559L11.1328-62.2559Q10.1074-62.2559 9.83887-61.377Q9.57031-60.498 10.4004-59.8633L13.7207-57.373L12.4512-53.3691Q12.0605-52.2949 12.8418-51.7578Q13.623-51.2207 14.5508-51.9043ZM14.5508-28.6621L17.9199-31.1523L21.1914-28.6621Q22.1191-27.9297 22.9248-28.4912Q23.7305-29.0527 23.3887-30.127L22.0703-34.1309L25.3418-36.6211Q26.2207-37.2559 25.9521-38.1348Q25.6836-39.0137 24.6094-39.0137L20.459-39.0137L19.1406-43.3105Q18.8477-44.2383 17.8955-44.2383Q16.9434-44.2383 16.6504-43.3105L15.332-39.0137L11.1328-39.0137Q10.1074-39.0137 9.83887-38.1348Q9.57031-37.2559 10.4004-36.6211L13.7207-34.1309L12.4512-30.127Q12.0605-29.0527 12.8418-28.5156Q13.623-27.9785 14.5508-28.6621ZM14.5508-5.32227L17.9199-7.8125L21.1914-5.32227Q22.1191-4.58984 22.9248-5.15137Q23.7305-5.71289 23.3887-6.78711L22.0703-10.791L25.3418-13.2812Q26.2207-13.916 25.9521-14.7949Q25.6836-15.6738 24.6094-15.6738L20.459-15.6738L19.1406-19.9707Q18.8477-20.8984 17.8955-20.8984Q16.9434-20.8984 16.6504-19.9707L15.332-15.6738L11.1328-15.6738Q10.1074-15.6738 9.83887-14.7949Q9.57031-13.916 10.4004-13.2812L13.7207-10.791L12.4512-6.78711Q12.0605-5.71289 12.8418-5.17578Q13.623-4.63867 14.5508-5.32227Z"/>
  </g>
  <g id="Light-S" transform="matrix(1 0 0 1 1105.16 696)">
   <path d="M34.5866-55.5013L83.4635-55.5013Q84.6191-55.5013 85.4004-56.2826Q86.1816-57.0638 86.1816-58.2031Q86.1816-59.3424 85.4004-60.1237Q84.6191-60.9049 83.4635-60.9049L34.5866-60.9049Q33.431-60.9049 32.6497-60.1237Q31.8685-59.3424 31.8685-58.2031Q31.8685-57.0638 32.6497-56.2826Q33.431-55.5013 34.5866-55.5013ZM34.5866-32.487L83.4635-32.487Q84.6191-32.487 85.4004-33.2764Q86.1816-34.0658 86.1816-35.2051Q86.1816-36.3444 85.4004-37.1338Q84.6191-37.9232 83.4635-37.9232L34.5866-37.9232Q33.431-37.9232 32.6497-37.1338Q31.8685-36.3444 31.8685-35.2051Q31.8685-34.0658 32.6497-33.2764Q33.431-32.487 34.5866-32.487ZM34.5866-9.50521L83.4635-9.50521Q84.6191-9.50521 85.4004-10.2865Q86.1816-11.0677 86.1816-12.207Q86.1816-13.3464 85.4004-14.1276Q84.6191-14.9089 83.4635-14.9089L34.5866-14.9089Q33.431-14.9089 32.6497-14.1276Q31.8685-13.3464 31.8685-12.207Q31.8685-11.0677 32.6497-10.2865Q33.431-9.50521 34.5866-9.50521ZM13.9323-52.1647L17.1387-54.5247L20.2474-52.1647Q21.0286-51.5788 21.6715-52.0182Q22.3145-52.4577 22.0215-53.3366L20.7682-57.1615L23.9095-59.5378Q24.6094-60.0423 24.3978-60.7503Q24.1862-61.4583 23.3236-61.4583L19.3848-61.4583L18.1152-65.5599Q17.8711-66.276 17.1224-66.2842Q16.3737-66.2923 16.1296-65.5599L14.86-61.4583L10.8561-61.4583Q10.026-61.4583 9.82259-60.7503Q9.61914-60.0423 10.2865-59.5378L13.444-57.1615L12.2396-53.3366Q11.9141-52.4577 12.5407-52.0345Q13.1673-51.6113 13.9323-52.1647ZM13.9323-29.2155L17.1387-31.5918L20.2474-29.2155Q21.0286-28.6133 21.6715-29.069Q22.3145-29.5247 22.0215-30.3874L20.7682-34.2122L23.9095-36.5723Q24.6094-37.0931 24.3978-37.793Q24.1862-38.4928 23.3236-38.4928L19.3848-38.4928L18.1152-42.5944Q17.8711-43.3268 17.1224-43.3268Q16.3737-43.3268 16.1296-42.5944L14.86-38.4928L10.8561-38.4928Q10.026-38.4928 9.82259-37.793Q9.61914-37.0931 10.2865-36.5723L13.444-34.2122L12.2396-30.3874Q11.9303-29.5247 12.5488-29.0934Q13.1673-28.6621 13.9323-29.2155ZM13.9323-6.16862L17.1387-8.54492L20.2474-6.16862Q21.0286-5.56641 21.6715-6.014Q22.3145-6.46159 22.0215-7.34049L20.7682-11.1654L23.9095-13.5254Q24.6094-14.0299 24.3978-14.7461Q24.1862-15.4622 23.3236-15.4622L19.3848-15.4622L18.1152-19.5475Q17.8711-20.2799 17.1224-20.2881Q16.3737-20.2962 16.1296-19.5475L14.86-15.4622L10.8561-15.4622Q10.026-15.4622 9.82259-14.7461Q9.61914-14.0299 10.2865-13.5254L13.444-11.1654L12.2396-7.34049Q11.9303-6.46159 12.5488-6.03841Q13.1673-5.61523 13.9323-6.16862Z"/>
  </g>
  <g id="Thin-S" transform="matrix(1 0 0 1 809.417 696)">
   <path d="M31.5729-56.1901L82.581-56.1901Q83.3276-56.1901 83.7859-56.6485Q84.2443-57.1069 84.2443-57.8157Q84.2443-58.5244 83.7859-58.9828Q83.3276-59.4412 82.581-59.4412L31.5729-59.4412Q30.8263-59.4412 30.3679-58.9828Q29.9096-58.5244 29.9096-57.8157Q29.9096-57.1069 30.3679-56.6485Q30.8263-56.1901 31.5729-56.1901ZM31.5729-33.5418L82.581-33.5418Q83.3276-33.5418 83.7859-34.019Q84.2443-34.4963 84.2443-35.2051Q84.2443-35.9139 83.7859-36.3911Q83.3276-36.8684 82.581-36.8684L31.5729-36.8684Q30.8263-36.8684 30.3679-36.3911Q29.9096-35.9139 29.9096-35.2051Q29.9096-34.4963 30.3679-34.019Q30.8263-33.5418 31.5729-33.5418ZM31.5729-10.969L82.581-10.969Q83.3276-10.969 83.7859-11.4274Q84.2443-11.8857 84.2443-12.5945Q84.2443-13.3033 83.7859-13.7617Q83.3276-14.22 82.581-14.22L31.5729-14.22Q30.8263-14.22 30.3679-13.7617Q29.9096-13.3033 29.9096-12.5945Q29.9096-11.8857 30.3679-11.4274Q30.8263-10.969 31.5729-10.969ZM13.1143-52.5091L16.1054-54.697L18.9989-52.5091Q19.5864-52.1169 20.014-52.3949Q20.4417-52.6729 20.2133-53.2935L19.0461-56.8816L22.0152-59.1072Q22.4783-59.4396 22.342-59.9216Q22.2058-60.4035 21.623-60.4035L17.964-60.4035L16.7591-64.2468Q16.5795-64.6831 16.0999-64.702Q15.6203-64.7209 15.4407-64.2468L14.2358-60.4035L10.4902-60.4035Q9.91841-60.4035 9.80106-59.9216Q9.68372-59.4396 10.1358-59.1072L13.0781-56.8816L11.9597-53.2935Q11.7203-52.6729 12.1425-52.4005Q12.5646-52.128 13.1143-52.5091ZM13.1143-29.9474L16.1054-32.173L18.9989-29.9474Q19.5864-29.5174 20.014-29.8332Q20.4417-30.149 20.2133-30.7318L19.0461-34.3199L22.0152-36.5077Q22.4783-36.8778 22.342-37.3409Q22.2058-37.804 21.623-37.804L17.964-37.804L16.7591-41.6472Q16.5795-42.1213 16.0999-42.1213Q15.6203-42.1213 15.4407-41.6472L14.2358-37.804L10.4902-37.804Q9.91841-37.804 9.80106-37.3409Q9.68372-36.8778 10.1358-36.5077L13.0781-34.3199L11.9597-30.7318Q11.7581-30.149 12.1614-29.8576Q12.5646-29.5662 13.1143-29.9474ZM13.1143-7.28799L16.1054-9.51361L18.9989-7.28799Q19.5864-6.85799 20.014-7.1549Q20.4417-7.4518 20.2133-8.07239L19.0461-11.6605L22.0152-13.8483Q22.4783-14.1806 22.342-14.6815Q22.2058-15.1824 21.623-15.1824L17.964-15.1824L16.7591-18.9878Q16.5795-19.4619 16.0999-19.4808Q15.6203-19.4997 15.4407-18.9878L14.2358-15.1824L10.4902-15.1824Q9.91841-15.1824 9.80106-14.6815Q9.68372-14.1806 10.1358-13.8483L13.0781-11.6605L11.9597-8.07239Q11.7581-7.4518 12.1614-7.17931Q12.5646-6.90682 13.1143-7.28799Z"/>
  </g>
  <g id="Ultralight-S" transform="matrix(1 0 0 1 513.202 696)">
   <path d="M30.0293-56.543L82.1289-56.543Q82.666-56.543 82.959-56.8359Q83.252-57.1289 83.252-57.6172Q83.252-58.1055 82.959-58.3984Q82.666-58.6914 82.1289-58.6914L30.0293-58.6914Q29.4922-58.6914 29.1992-58.3984Q28.9062-58.1055 28.9062-57.6172Q28.9062-57.1289 29.1992-56.8359Q29.4922-56.543 30.0293-56.543ZM30.0293-34.082L82.1289-34.082Q82.666-34.082 82.959-34.3994Q83.252-34.7168 83.252-35.2051Q83.252-35.6934 82.959-36.0107Q82.666-36.3281 82.1289-36.3281L30.0293-36.3281Q29.4922-36.3281 29.1992-36.0107Q28.9062-35.6934 28.9062-35.2051Q28.9062-34.7168 29.1992-34.3994Q29.4922-34.082 30.0293-34.082ZM30.0293-11.7188L82.1289-11.7188Q82.666-11.7188 82.959-12.0117Q83.252-12.3047 83.252-12.793Q83.252-13.2812 82.959-13.5742Q82.666-13.8672 82.1289-13.8672L30.0293-13.8672Q29.4922-13.8672 29.1992-13.5742Q28.9062-13.2812 28.9062-12.793Q28.9062-12.3047 29.1992-12.0117Q29.4922-11.7188 30.0293-11.7188ZM12.6953-52.6855L15.5762-54.7852L18.3594-52.6855Q18.8477-52.3926 19.165-52.5879Q19.4824-52.7832 19.2871-53.2715L18.1641-56.7383L21.0449-58.8867Q21.3867-59.1309 21.2891-59.4971Q21.1914-59.8633 20.752-59.8633L17.2363-59.8633L16.0645-63.5742Q15.918-63.8672 15.5762-63.8916Q15.2344-63.916 15.0879-63.5742L13.916-59.8633L10.3027-59.8633Q9.86328-59.8633 9.79004-59.4971Q9.7168-59.1309 10.0586-58.8867L12.8906-56.7383L11.8164-53.2715Q11.6211-52.7832 11.9385-52.5879Q12.2559-52.3926 12.6953-52.6855ZM12.6953-30.3223L15.5762-32.4707L18.3594-30.3223Q18.8477-29.9805 19.165-30.2246Q19.4824-30.4688 19.2871-30.9082L18.1641-34.375L21.0449-36.4746Q21.3867-36.7676 21.2891-37.1094Q21.1914-37.4512 20.752-37.4512L17.2363-37.4512L16.0645-41.1621Q15.918-41.5039 15.5762-41.5039Q15.2344-41.5039 15.0879-41.1621L13.916-37.4512L10.3027-37.4512Q9.86328-37.4512 9.79004-37.1094Q9.7168-36.7676 10.0586-36.4746L12.8906-34.375L11.8164-30.9082Q11.6699-30.4688 11.9629-30.249Q12.2559-30.0293 12.6953-30.3223ZM12.6953-7.86133L15.5762-10.0098L18.3594-7.86133Q18.8477-7.51953 19.165-7.73926Q19.4824-7.95898 19.2871-8.44727L18.1641-11.9141L21.0449-14.0137Q21.3867-14.2578 21.2891-14.6484Q21.1914-15.0391 20.752-15.0391L17.2363-15.0391L16.0645-18.7012Q15.918-19.043 15.5762-19.0674Q15.2344-19.0918 15.0879-18.7012L13.916-15.0391L10.3027-15.0391Q9.86328-15.0391 9.79004-14.6484Q9.7168-14.2578 10.0586-14.0137L12.8906-11.9141L11.8164-8.44727Q11.6699-7.95898 11.9629-7.76367Q12.2559-7.56836 12.6953-7.86133Z"/>
  </g>
 </g>
</svg>
